  0
SECTION
  2
BLOCKS
  0
ENDSEC
  0
SECTION
  2
ENTITIES
  0
LINE
  8
0
 10
64.8265
 20
-21.4957
 11
64.8917
 21
-21.487
  0
LINE
  8
0
 10
64.8917
 20
-21.487
 11
64.9562
 21
-21.474
  0
LINE
  8
0
 10
64.9562
 20
-21.474
 11
65.0195
 21
-21.4569
  0
LINE
  8
0
 10
65.0195
 20
-21.4569
 11
65.0815
 21
-21.4356
  0
LINE
  8
0
 10
65.0815
 20
-21.4356
 11
65.0907
 21
-21.4322
  0
LINE
  8
0
 10
65.0907
 20
-21.4322
 11
65.1516
 21
-21.4066
  0
LINE
  8
0
 10
65.1516
 20
-21.4066
 11
65.2105
 21
-21.377
  0
LINE
  8
0
 10
65.2105
 20
-21.377
 11
65.2671
 21
-21.3436
  0
LINE
  8
0
 10
65.2671
 20
-21.3436
 11
65.3211
 21
-21.3065
  0
LINE
  8
0
 10
65.3211
 20
-21.3065
 11
65.3722
 21
-21.266
  0
LINE
  8
0
 10
65.3722
 20
-21.266
 11
65.4202
 21
-21.2223
  0
LINE
  8
0
 10
65.4202
 20
-21.2223
 11
65.4301
 21
-21.2131
  0
LINE
  8
0
 10
65.4301
 20
-21.2131
 11
65.4751
 21
-21.1659
  0
LINE
  8
0
 10
65.4751
 20
-21.1659
 11
65.5165
 21
-21.1159
  0
LINE
  8
0
 10
65.5165
 20
-21.1159
 11
65.5541
 21
-21.0633
  0
LINE
  8
0
 10
65.5541
 20
-21.0633
 11
65.5877
 21
-21.0083
  0
LINE
  8
0
 10
65.5877
 20
-21.0083
 11
65.5946
 21
-20.9955
  0
LINE
  8
0
 10
65.5946
 20
-20.9955
 11
65.6242
 21
-20.9383
  0
LINE
  8
0
 10
65.6242
 20
-20.9383
 11
65.6494
 21
-20.8793
  0
LINE
  8
0
 10
65.6494
 20
-20.8793
 11
66.7869
 21
-17.6637
  0
LINE
  8
0
 10
66.7869
 20
-17.6637
 11
66.8077
 21
-17.6032
  0
LINE
  8
0
 10
66.8077
 20
-17.6032
 11
67.965
 21
-13.3398
  0
LINE
  8
0
 10
67.965
 20
-13.3398
 11
67.9812
 21
-13.278
  0
LINE
  8
0
 10
67.9812
 20
-13.278
 11
68.8119
 21
-8.95078
  0
LINE
  8
0
 10
68.8119
 20
-8.95078
 11
68.8236
 21
-8.88811
  0
LINE
  8
0
 10
68.8236
 20
-8.88811
 11
69.3237
 21
-4.51819
  0
LINE
  8
0
 10
69.3237
 20
-4.51819
 11
69.3307
 21
-4.4549
  0
LINE
  8
0
 10
69.3307
 20
-4.4549
 11
69.4977
 21
-0.0635986
  0
LINE
  8
0
 10
69.4977
 20
-0.0635986
 11
69.5
 21
0
  0
LINE
  8
0
 10
69.5
 20
0
 11
69.4977
 21
0.0635986
  0
LINE
  8
0
 10
69.4977
 20
0.0635986
 11
69.3307
 21
4.4549
  0
LINE
  8
0
 10
69.3307
 20
4.4549
 11
69.3237
 21
4.51819
  0
LINE
  8
0
 10
69.3237
 20
4.51819
 11
68.8236
 21
8.88811
  0
LINE
  8
0
 10
68.8236
 20
8.88811
 11
68.8119
 21
8.95078
  0
LINE
  8
0
 10
68.8119
 20
8.95078
 11
67.9812
 21
13.278
  0
LINE
  8
0
 10
67.9812
 20
13.278
 11
67.965
 21
13.3398
  0
LINE
  8
0
 10
67.965
 20
13.3398
 11
66.8077
 21
17.6032
  0
LINE
  8
0
 10
66.8077
 20
17.6032
 11
66.7869
 21
17.6637
  0
LINE
  8
0
 10
66.7869
 20
17.6637
 11
65.6494
 21
20.8793
  0
LINE
  8
0
 10
65.6494
 20
20.8793
 11
65.6242
 21
20.9383
  0
LINE
  8
0
 10
65.6242
 20
20.9383
 11
65.5946
 21
20.9955
  0
LINE
  8
0
 10
65.5946
 20
20.9955
 11
65.5877
 21
21.0083
  0
LINE
  8
0
 10
65.5877
 20
21.0083
 11
65.5541
 21
21.0633
  0
LINE
  8
0
 10
65.5541
 20
21.0633
 11
65.5165
 21
21.1159
  0
LINE
  8
0
 10
65.5165
 20
21.1159
 11
65.4751
 21
21.1659
  0
LINE
  8
0
 10
65.4751
 20
21.1659
 11
65.4301
 21
21.2131
  0
LINE
  8
0
 10
65.4301
 20
21.2131
 11
65.4202
 21
21.2223
  0
LINE
  8
0
 10
65.4202
 20
21.2223
 11
65.3722
 21
21.266
  0
LINE
  8
0
 10
65.3722
 20
21.266
 11
65.3211
 21
21.3065
  0
LINE
  8
0
 10
65.3211
 20
21.3065
 11
65.2671
 21
21.3436
  0
LINE
  8
0
 10
65.2671
 20
21.3436
 11
65.2105
 21
21.377
  0
LINE
  8
0
 10
65.2105
 20
21.377
 11
65.1516
 21
21.4066
  0
LINE
  8
0
 10
65.1516
 20
21.4066
 11
65.0907
 21
21.4322
  0
LINE
  8
0
 10
65.0907
 20
21.4322
 11
65.0815
 21
21.4356
  0
LINE
  8
0
 10
65.0815
 20
21.4356
 11
65.0195
 21
21.4569
  0
LINE
  8
0
 10
65.0195
 20
21.4569
 11
64.9562
 21
21.474
  0
LINE
  8
0
 10
64.9562
 20
21.474
 11
64.8917
 21
21.487
  0
LINE
  8
0
 10
64.8917
 20
21.487
 11
64.8265
 21
21.4957
  0
LINE
  8
0
 10
64.8265
 20
21.4957
 11
64.7607
 21
21.5
  0
LINE
  8
0
 10
64.7607
 20
21.5
 11
-64.7607
 21
21.5
  0
LINE
  8
0
 10
-64.7607
 20
21.5
 11
-64.8265
 21
21.4957
  0
LINE
  8
0
 10
-64.8265
 20
21.4957
 11
-64.8917
 21
21.487
  0
LINE
  8
0
 10
-64.8917
 20
21.487
 11
-64.9562
 21
21.474
  0
LINE
  8
0
 10
-64.9562
 20
21.474
 11
-65.0195
 21
21.4569
  0
LINE
  8
0
 10
-65.0195
 20
21.4569
 11
-65.0815
 21
21.4356
  0
LINE
  8
0
 10
-65.0815
 20
21.4356
 11
-65.0907
 21
21.4322
  0
LINE
  8
0
 10
-65.0907
 20
21.4322
 11
-65.1516
 21
21.4066
  0
LINE
  8
0
 10
-65.1516
 20
21.4066
 11
-65.2105
 21
21.377
  0
LINE
  8
0
 10
-65.2105
 20
21.377
 11
-65.2671
 21
21.3436
  0
LINE
  8
0
 10
-65.2671
 20
21.3436
 11
-65.3211
 21
21.3065
  0
LINE
  8
0
 10
-65.3211
 20
21.3065
 11
-65.3722
 21
21.266
  0
LINE
  8
0
 10
-65.3722
 20
21.266
 11
-65.4202
 21
21.2223
  0
LINE
  8
0
 10
-65.4202
 20
21.2223
 11
-65.4301
 21
21.2131
  0
LINE
  8
0
 10
-65.4301
 20
21.2131
 11
-65.4751
 21
21.1659
  0
LINE
  8
0
 10
-65.4751
 20
21.1659
 11
-65.5165
 21
21.1159
  0
LINE
  8
0
 10
-65.5165
 20
21.1159
 11
-65.5541
 21
21.0633
  0
LINE
  8
0
 10
-65.5541
 20
21.0633
 11
-65.5877
 21
21.0083
  0
LINE
  8
0
 10
-65.5877
 20
21.0083
 11
-65.5946
 21
20.9955
  0
LINE
  8
0
 10
-65.5946
 20
20.9955
 11
-65.6242
 21
20.9383
  0
LINE
  8
0
 10
-65.6242
 20
20.9383
 11
-65.6494
 21
20.8793
  0
LINE
  8
0
 10
-65.6494
 20
20.8793
 11
-66.7869
 21
17.6637
  0
LINE
  8
0
 10
-66.7869
 20
17.6637
 11
-66.8077
 21
17.6032
  0
LINE
  8
0
 10
-66.8077
 20
17.6032
 11
-67.965
 21
13.3398
  0
LINE
  8
0
 10
-67.965
 20
13.3398
 11
-67.9812
 21
13.278
  0
LINE
  8
0
 10
-67.9812
 20
13.278
 11
-68.8119
 21
8.95078
  0
LINE
  8
0
 10
-68.8119
 20
8.95078
 11
-68.8236
 21
8.88811
  0
LINE
  8
0
 10
-68.8236
 20
8.88811
 11
-69.3237
 21
4.51819
  0
LINE
  8
0
 10
-69.3237
 20
4.51819
 11
-69.3307
 21
4.4549
  0
LINE
  8
0
 10
-69.3307
 20
4.4549
 11
-69.4977
 21
0.0635986
  0
LINE
  8
0
 10
-69.4977
 20
0.0635986
 11
-69.5
 21
0
  0
LINE
  8
0
 10
-69.5
 20
0
 11
-69.4977
 21
-0.0635986
  0
LINE
  8
0
 10
-69.4977
 20
-0.0635986
 11
-69.3307
 21
-4.4549
  0
LINE
  8
0
 10
-69.3307
 20
-4.4549
 11
-69.3237
 21
-4.51819
  0
LINE
  8
0
 10
-69.3237
 20
-4.51819
 11
-68.8236
 21
-8.88811
  0
LINE
  8
0
 10
-68.8236
 20
-8.88811
 11
-68.8119
 21
-8.95078
  0
LINE
  8
0
 10
-68.8119
 20
-8.95078
 11
-67.9812
 21
-13.278
  0
LINE
  8
0
 10
-67.9812
 20
-13.278
 11
-67.965
 21
-13.3398
  0
LINE
  8
0
 10
-67.965
 20
-13.3398
 11
-66.8077
 21
-17.6032
  0
LINE
  8
0
 10
-66.8077
 20
-17.6032
 11
-66.7869
 21
-17.6637
  0
LINE
  8
0
 10
-66.7869
 20
-17.6637
 11
-65.6494
 21
-20.8793
  0
LINE
  8
0
 10
-65.6494
 20
-20.8793
 11
-65.6242
 21
-20.9383
  0
LINE
  8
0
 10
-65.6242
 20
-20.9383
 11
-65.5946
 21
-20.9955
  0
LINE
  8
0
 10
-65.5946
 20
-20.9955
 11
-65.5877
 21
-21.0083
  0
LINE
  8
0
 10
-65.5877
 20
-21.0083
 11
-65.5541
 21
-21.0633
  0
LINE
  8
0
 10
-65.5541
 20
-21.0633
 11
-65.5165
 21
-21.1159
  0
LINE
  8
0
 10
-65.5165
 20
-21.1159
 11
-65.4751
 21
-21.1659
  0
LINE
  8
0
 10
-65.4751
 20
-21.1659
 11
-65.4301
 21
-21.2131
  0
LINE
  8
0
 10
-65.4301
 20
-21.2131
 11
-65.4202
 21
-21.2223
  0
LINE
  8
0
 10
-65.4202
 20
-21.2223
 11
-65.3722
 21
-21.266
  0
LINE
  8
0
 10
-65.3722
 20
-21.266
 11
-65.3211
 21
-21.3065
  0
LINE
  8
0
 10
-65.3211
 20
-21.3065
 11
-65.2671
 21
-21.3436
  0
LINE
  8
0
 10
-65.2671
 20
-21.3436
 11
-65.2105
 21
-21.377
  0
LINE
  8
0
 10
-65.2105
 20
-21.377
 11
-65.1516
 21
-21.4066
  0
LINE
  8
0
 10
-65.1516
 20
-21.4066
 11
-65.0907
 21
-21.4322
  0
LINE
  8
0
 10
-65.0907
 20
-21.4322
 11
-65.0815
 21
-21.4356
  0
LINE
  8
0
 10
-65.0815
 20
-21.4356
 11
-65.0195
 21
-21.4569
  0
LINE
  8
0
 10
-65.0195
 20
-21.4569
 11
-64.9562
 21
-21.474
  0
LINE
  8
0
 10
-64.9562
 20
-21.474
 11
-64.8917
 21
-21.487
  0
LINE
  8
0
 10
-64.8917
 20
-21.487
 11
-64.8265
 21
-21.4957
  0
LINE
  8
0
 10
-64.8265
 20
-21.4957
 11
-64.7607
 21
-21.5
  0
LINE
  8
0
 10
-64.7607
 20
-21.5
 11
64.7607
 21
-21.5
  0
LINE
  8
0
 10
64.7607
 20
-21.5
 11
64.8265
 21
-21.4957
  0
ENDSEC
  0
SECTION
  2
OBJECTS
  0
DICTIONARY
  0
ENDSEC
  0
EOF
