  0
SECTION
  2
BLOCKS
  0
ENDSEC
  0
SECTION
  2
ENTITIES
  0
LINE
  8
0
 10
62.4558
 20
-21.4956
 11
62.5201
 21
-21.4869
  0
LINE
  8
0
 10
62.5201
 20
-21.4869
 11
62.5837
 21
-21.4739
  0
LINE
  8
0
 10
62.5837
 20
-21.4739
 11
62.6461
 21
-21.4566
  0
LINE
  8
0
 10
62.6461
 20
-21.4566
 11
62.7071
 21
-21.4352
  0
LINE
  8
0
 10
62.7071
 20
-21.4352
 11
62.7162
 21
-21.4318
  0
LINE
  8
0
 10
62.7162
 20
-21.4318
 11
62.7763
 21
-21.4061
  0
LINE
  8
0
 10
62.7763
 20
-21.4061
 11
62.8344
 21
-21.3763
  0
LINE
  8
0
 10
62.8344
 20
-21.3763
 11
62.8901
 21
-21.3427
  0
LINE
  8
0
 10
62.8901
 20
-21.3427
 11
62.9433
 21
-21.3055
  0
LINE
  8
0
 10
62.9433
 20
-21.3055
 11
62.9937
 21
-21.2648
  0
LINE
  8
0
 10
62.9937
 20
-21.2648
 11
63.041
 21
-21.2207
  0
LINE
  8
0
 10
63.041
 20
-21.2207
 11
63.0508
 21
-21.2116
  0
LINE
  8
0
 10
63.0508
 20
-21.2116
 11
63.0951
 21
-21.1641
  0
LINE
  8
0
 10
63.0951
 20
-21.1641
 11
63.1359
 21
-21.1138
  0
LINE
  8
0
 10
63.1359
 20
-21.1138
 11
63.1729
 21
-21.0609
  0
LINE
  8
0
 10
63.1729
 20
-21.0609
 11
63.2061
 21
-21.0056
  0
LINE
  8
0
 10
63.2061
 20
-21.0056
 11
63.2129
 21
-20.9928
  0
LINE
  8
0
 10
63.2129
 20
-20.9928
 11
63.242
 21
-20.9353
  0
LINE
  8
0
 10
63.242
 20
-20.9353
 11
63.2669
 21
-20.8759
  0
LINE
  8
0
 10
63.2669
 20
-20.8759
 11
64.3475
 21
-17.7598
  0
LINE
  8
0
 10
64.3475
 20
-17.7598
 11
64.368
 21
-17.6989
  0
LINE
  8
0
 10
64.368
 20
-17.6989
 11
65.5086
 21
-13.4123
  0
LINE
  8
0
 10
65.5086
 20
-13.4123
 11
65.5247
 21
-13.3502
  0
LINE
  8
0
 10
65.5247
 20
-13.3502
 11
66.3434
 21
-8.99942
  0
LINE
  8
0
 10
66.3434
 20
-8.99942
 11
66.3549
 21
-8.93642
  0
LINE
  8
0
 10
66.3549
 20
-8.93642
 11
66.8478
 21
-4.54276
  0
LINE
  8
0
 10
66.8478
 20
-4.54276
 11
66.8547
 21
-4.47911
  0
LINE
  8
0
 10
66.8547
 20
-4.47911
 11
67.0193
 21
-0.0639343
  0
LINE
  8
0
 10
67.0193
 20
-0.0639343
 11
67.0216
 21
0
  0
LINE
  8
0
 10
67.0216
 20
0
 11
67.0193
 21
0.0639343
  0
LINE
  8
0
 10
67.0193
 20
0.0639343
 11
66.8547
 21
4.47911
  0
LINE
  8
0
 10
66.8547
 20
4.47911
 11
66.8478
 21
4.54276
  0
LINE
  8
0
 10
66.8478
 20
4.54276
 11
66.3549
 21
8.93642
  0
LINE
  8
0
 10
66.3549
 20
8.93642
 11
66.3434
 21
8.99942
  0
LINE
  8
0
 10
66.3434
 20
8.99942
 11
65.5247
 21
13.3502
  0
LINE
  8
0
 10
65.5247
 20
13.3502
 11
65.5086
 21
13.4123
  0
LINE
  8
0
 10
65.5086
 20
13.4123
 11
64.368
 21
17.6989
  0
LINE
  8
0
 10
64.368
 20
17.6989
 11
64.3475
 21
17.7598
  0
LINE
  8
0
 10
64.3475
 20
17.7598
 11
63.2669
 21
20.8759
  0
LINE
  8
0
 10
63.2669
 20
20.8759
 11
63.242
 21
20.9353
  0
LINE
  8
0
 10
63.242
 20
20.9353
 11
63.2129
 21
20.9928
  0
LINE
  8
0
 10
63.2129
 20
20.9928
 11
63.2061
 21
21.0056
  0
LINE
  8
0
 10
63.2061
 20
21.0056
 11
63.1729
 21
21.0609
  0
LINE
  8
0
 10
63.1729
 20
21.0609
 11
63.1359
 21
21.1138
  0
LINE
  8
0
 10
63.1359
 20
21.1138
 11
63.0951
 21
21.1641
  0
LINE
  8
0
 10
63.0951
 20
21.1641
 11
63.0508
 21
21.2116
  0
LINE
  8
0
 10
63.0508
 20
21.2116
 11
63.041
 21
21.2207
  0
LINE
  8
0
 10
63.041
 20
21.2207
 11
62.9937
 21
21.2648
  0
LINE
  8
0
 10
62.9937
 20
21.2648
 11
62.9433
 21
21.3055
  0
LINE
  8
0
 10
62.9433
 20
21.3055
 11
62.8901
 21
21.3427
  0
LINE
  8
0
 10
62.8901
 20
21.3427
 11
62.8344
 21
21.3763
  0
LINE
  8
0
 10
62.8344
 20
21.3763
 11
62.7763
 21
21.4061
  0
LINE
  8
0
 10
62.7763
 20
21.4061
 11
62.7162
 21
21.4318
  0
LINE
  8
0
 10
62.7162
 20
21.4318
 11
62.7071
 21
21.4352
  0
LINE
  8
0
 10
62.7071
 20
21.4352
 11
62.6461
 21
21.4566
  0
LINE
  8
0
 10
62.6461
 20
21.4566
 11
62.5837
 21
21.4739
  0
LINE
  8
0
 10
62.5837
 20
21.4739
 11
62.5201
 21
21.4869
  0
LINE
  8
0
 10
62.5201
 20
21.4869
 11
62.4558
 21
21.4956
  0
LINE
  8
0
 10
62.4558
 20
21.4956
 11
62.391
 21
21.5
  0
LINE
  8
0
 10
62.391
 20
21.5
 11
-65.3478
 21
21.5
  0
LINE
  8
0
 10
-65.3478
 20
21.5
 11
-65.4126
 21
21.4956
  0
LINE
  8
0
 10
-65.4126
 20
21.4956
 11
-65.477
 21
21.4869
  0
LINE
  8
0
 10
-65.477
 20
21.4869
 11
-65.5405
 21
21.4739
  0
LINE
  8
0
 10
-65.5405
 20
21.4739
 11
-65.6029
 21
21.4566
  0
LINE
  8
0
 10
-65.6029
 20
21.4566
 11
-65.664
 21
21.4352
  0
LINE
  8
0
 10
-65.664
 20
21.4352
 11
-65.673
 21
21.4318
  0
LINE
  8
0
 10
-65.673
 20
21.4318
 11
-65.7331
 21
21.4061
  0
LINE
  8
0
 10
-65.7331
 20
21.4061
 11
-65.7912
 21
21.3763
  0
LINE
  8
0
 10
-65.7912
 20
21.3763
 11
-65.847
 21
21.3427
  0
LINE
  8
0
 10
-65.847
 20
21.3427
 11
-65.9001
 21
21.3055
  0
LINE
  8
0
 10
-65.9001
 20
21.3055
 11
-65.9505
 21
21.2648
  0
LINE
  8
0
 10
-65.9505
 20
21.2648
 11
-65.9978
 21
21.2207
  0
LINE
  8
0
 10
-65.9978
 20
21.2207
 11
-66.0076
 21
21.2116
  0
LINE
  8
0
 10
-66.0076
 20
21.2116
 11
-66.0519
 21
21.1641
  0
LINE
  8
0
 10
-66.0519
 20
21.1641
 11
-66.0927
 21
21.1138
  0
LINE
  8
0
 10
-66.0927
 20
21.1138
 11
-66.1298
 21
21.0609
  0
LINE
  8
0
 10
-66.1298
 20
21.0609
 11
-66.1629
 21
21.0056
  0
LINE
  8
0
 10
-66.1629
 20
21.0056
 11
-66.1698
 21
20.9928
  0
LINE
  8
0
 10
-66.1698
 20
20.9928
 11
-66.1989
 21
20.9353
  0
LINE
  8
0
 10
-66.1989
 20
20.9353
 11
-66.2238
 21
20.8759
  0
LINE
  8
0
 10
-66.2238
 20
20.8759
 11
-67.3043
 21
17.7598
  0
LINE
  8
0
 10
-67.3043
 20
17.7598
 11
-67.3248
 21
17.6989
  0
LINE
  8
0
 10
-67.3248
 20
17.6989
 11
-68.4655
 21
13.4123
  0
LINE
  8
0
 10
-68.4655
 20
13.4123
 11
-68.4815
 21
13.3502
  0
LINE
  8
0
 10
-68.4815
 20
13.3502
 11
-69.3002
 21
8.99942
  0
LINE
  8
0
 10
-69.3002
 20
8.99942
 11
-69.3118
 21
8.93642
  0
LINE
  8
0
 10
-69.3118
 20
8.93642
 11
-69.8046
 21
4.54276
  0
LINE
  8
0
 10
-69.8046
 20
4.54276
 11
-69.8116
 21
4.47911
  0
LINE
  8
0
 10
-69.8116
 20
4.47911
 11
-69.9761
 21
0.0639343
  0
LINE
  8
0
 10
-69.9761
 20
0.0639343
 11
-69.9784
 21
0
  0
LINE
  8
0
 10
-69.9784
 20
0
 11
-69.9761
 21
-0.0639343
  0
LINE
  8
0
 10
-69.9761
 20
-0.0639343
 11
-69.8116
 21
-4.47911
  0
LINE
  8
0
 10
-69.8116
 20
-4.47911
 11
-69.8046
 21
-4.54276
  0
LINE
  8
0
 10
-69.8046
 20
-4.54276
 11
-69.3118
 21
-8.93642
  0
LINE
  8
0
 10
-69.3118
 20
-8.93642
 11
-69.3002
 21
-8.99942
  0
LINE
  8
0
 10
-69.3002
 20
-8.99942
 11
-68.4815
 21
-13.3502
  0
LINE
  8
0
 10
-68.4815
 20
-13.3502
 11
-68.4655
 21
-13.4123
  0
LINE
  8
0
 10
-68.4655
 20
-13.4123
 11
-67.3248
 21
-17.6989
  0
LINE
  8
0
 10
-67.3248
 20
-17.6989
 11
-67.3043
 21
-17.7598
  0
LINE
  8
0
 10
-67.3043
 20
-17.7598
 11
-66.2238
 21
-20.8759
  0
LINE
  8
0
 10
-66.2238
 20
-20.8759
 11
-66.1989
 21
-20.9353
  0
LINE
  8
0
 10
-66.1989
 20
-20.9353
 11
-66.1698
 21
-20.9928
  0
LINE
  8
0
 10
-66.1698
 20
-20.9928
 11
-66.1629
 21
-21.0056
  0
LINE
  8
0
 10
-66.1629
 20
-21.0056
 11
-66.1298
 21
-21.0609
  0
LINE
  8
0
 10
-66.1298
 20
-21.0609
 11
-66.0927
 21
-21.1138
  0
LINE
  8
0
 10
-66.0927
 20
-21.1138
 11
-66.0519
 21
-21.1641
  0
LINE
  8
0
 10
-66.0519
 20
-21.1641
 11
-66.0076
 21
-21.2116
  0
LINE
  8
0
 10
-66.0076
 20
-21.2116
 11
-65.9978
 21
-21.2207
  0
LINE
  8
0
 10
-65.9978
 20
-21.2207
 11
-65.9505
 21
-21.2648
  0
LINE
  8
0
 10
-65.9505
 20
-21.2648
 11
-65.9001
 21
-21.3055
  0
LINE
  8
0
 10
-65.9001
 20
-21.3055
 11
-65.847
 21
-21.3427
  0
LINE
  8
0
 10
-65.847
 20
-21.3427
 11
-65.7912
 21
-21.3763
  0
LINE
  8
0
 10
-65.7912
 20
-21.3763
 11
-65.7331
 21
-21.4061
  0
LINE
  8
0
 10
-65.7331
 20
-21.4061
 11
-65.673
 21
-21.4318
  0
LINE
  8
0
 10
-65.673
 20
-21.4318
 11
-65.664
 21
-21.4352
  0
LINE
  8
0
 10
-65.664
 20
-21.4352
 11
-65.6029
 21
-21.4566
  0
LINE
  8
0
 10
-65.6029
 20
-21.4566
 11
-65.5405
 21
-21.4739
  0
LINE
  8
0
 10
-65.5405
 20
-21.4739
 11
-65.477
 21
-21.4869
  0
LINE
  8
0
 10
-65.477
 20
-21.4869
 11
-65.4126
 21
-21.4956
  0
LINE
  8
0
 10
-65.4126
 20
-21.4956
 11
-65.3478
 21
-21.5
  0
LINE
  8
0
 10
-65.3478
 20
-21.5
 11
62.391
 21
-21.5
  0
LINE
  8
0
 10
62.391
 20
-21.5
 11
62.4558
 21
-21.4956
  0
LINE
  8
0
 10
-10.0523
 20
-13.4991
 11
-10.1568
 21
-13.4918
  0
LINE
  8
0
 10
-10.1568
 20
-13.4918
 11
-10.2605
 21
-13.4772
  0
LINE
  8
0
 10
-10.2605
 20
-13.4772
 11
-10.3629
 21
-13.4554
  0
LINE
  8
0
 10
-10.3629
 20
-13.4554
 11
-10.4635
 21
-13.4266
  0
LINE
  8
0
 10
-10.4635
 20
-13.4266
 11
-10.5619
 21
-13.3908
  0
LINE
  8
0
 10
-10.5619
 20
-13.3908
 11
-10.6575
 21
-13.3482
  0
LINE
  8
0
 10
-10.6575
 20
-13.3482
 11
-10.75
 21
-13.299
  0
LINE
  8
0
 10
-10.75
 20
-13.299
 11
-10.8388
 21
-13.2435
  0
LINE
  8
0
 10
-10.8388
 20
-13.2435
 11
-10.9235
 21
-13.182
  0
LINE
  8
0
 10
-10.9235
 20
-13.182
 11
-11.0037
 21
-13.1147
  0
LINE
  8
0
 10
-11.0037
 20
-13.1147
 11
-11.079
 21
-13.042
  0
LINE
  8
0
 10
-11.079
 20
-13.042
 11
-11.1491
 21
-12.9642
  0
LINE
  8
0
 10
-11.1491
 20
-12.9642
 11
-11.2135
 21
-12.8817
  0
LINE
  8
0
 10
-11.2135
 20
-12.8817
 11
-11.2721
 21
-12.7949
  0
LINE
  8
0
 10
-11.2721
 20
-12.7949
 11
-11.3244
 21
-12.7042
  0
LINE
  8
0
 10
-11.3244
 20
-12.7042
 11
-11.3703
 21
-12.6101
  0
LINE
  8
0
 10
-11.3703
 20
-12.6101
 11
-11.4095
 21
-12.513
  0
LINE
  8
0
 10
-11.4095
 20
-12.513
 11
-11.4419
 21
-12.4135
  0
LINE
  8
0
 10
-11.4419
 20
-12.4135
 11
-11.4672
 21
-12.3119
  0
LINE
  8
0
 10
-11.4672
 20
-12.3119
 11
-11.4854
 21
-12.2088
  0
LINE
  8
0
 10
-11.4854
 20
-12.2088
 11
-11.4963
 21
-12.1046
  0
LINE
  8
0
 10
-11.4963
 20
-12.1046
 11
-11.5
 21
-12
  0
LINE
  8
0
 10
-11.5
 20
-12
 11
-11.4963
 21
-11.8954
  0
LINE
  8
0
 10
-11.4963
 20
-11.8954
 11
-11.4854
 21
-11.7912
  0
LINE
  8
0
 10
-11.4854
 20
-11.7912
 11
-11.4672
 21
-11.6881
  0
LINE
  8
0
 10
-11.4672
 20
-11.6881
 11
-11.4419
 21
-11.5865
  0
LINE
  8
0
 10
-11.4419
 20
-11.5865
 11
-11.4095
 21
-11.487
  0
LINE
  8
0
 10
-11.4095
 20
-11.487
 11
-11.3703
 21
-11.3899
  0
LINE
  8
0
 10
-11.3703
 20
-11.3899
 11
-11.3244
 21
-11.2958
  0
LINE
  8
0
 10
-11.3244
 20
-11.2958
 11
-11.2721
 21
-11.2051
  0
LINE
  8
0
 10
-11.2721
 20
-11.2051
 11
-11.2135
 21
-11.1183
  0
LINE
  8
0
 10
-11.2135
 20
-11.1183
 11
-11.1491
 21
-11.0358
  0
LINE
  8
0
 10
-11.1491
 20
-11.0358
 11
-11.079
 21
-10.958
  0
LINE
  8
0
 10
-11.079
 20
-10.958
 11
-11.0037
 21
-10.8853
  0
LINE
  8
0
 10
-11.0037
 20
-10.8853
 11
-10.9235
 21
-10.818
  0
LINE
  8
0
 10
-10.9235
 20
-10.818
 11
-10.8388
 21
-10.7564
  0
LINE
  8
0
 10
-10.8388
 20
-10.7564
 11
-10.75
 21
-10.701
  0
LINE
  8
0
 10
-10.75
 20
-10.701
 11
-10.6575
 21
-10.6518
  0
LINE
  8
0
 10
-10.6575
 20
-10.6518
 11
-10.5619
 21
-10.6092
  0
LINE
  8
0
 10
-10.5619
 20
-10.6092
 11
-10.4635
 21
-10.5734
  0
LINE
  8
0
 10
-10.4635
 20
-10.5734
 11
-10.3629
 21
-10.5446
  0
LINE
  8
0
 10
-10.3629
 20
-10.5446
 11
-10.2605
 21
-10.5228
  0
LINE
  8
0
 10
-10.2605
 20
-10.5228
 11
-10.1568
 21
-10.5082
  0
LINE
  8
0
 10
-10.1568
 20
-10.5082
 11
-10.0523
 21
-10.5009
  0
LINE
  8
0
 10
-10.0523
 20
-10.5009
 11
-9.94765
 21
-10.5009
  0
LINE
  8
0
 10
-9.94765
 20
-10.5009
 11
-9.8432
 21
-10.5082
  0
LINE
  8
0
 10
-9.8432
 20
-10.5082
 11
-9.73952
 21
-10.5228
  0
LINE
  8
0
 10
-9.73952
 20
-10.5228
 11
-9.63712
 21
-10.5446
  0
LINE
  8
0
 10
-9.63712
 20
-10.5446
 11
-9.53647
 21
-10.5734
  0
LINE
  8
0
 10
-9.53647
 20
-10.5734
 11
-9.43808
 21
-10.6092
  0
LINE
  8
0
 10
-9.43808
 20
-10.6092
 11
-9.34244
 21
-10.6518
  0
LINE
  8
0
 10
-9.34244
 20
-10.6518
 11
-9.25
 21
-10.701
  0
LINE
  8
0
 10
-9.25
 20
-10.701
 11
-9.16121
 21
-10.7564
  0
LINE
  8
0
 10
-9.16121
 20
-10.7564
 11
-9.07651
 21
-10.818
  0
LINE
  8
0
 10
-9.07651
 20
-10.818
 11
-8.99629
 21
-10.8853
  0
LINE
  8
0
 10
-8.99629
 20
-10.8853
 11
-8.92099
 21
-10.958
  0
LINE
  8
0
 10
-8.92099
 20
-10.958
 11
-8.85092
 21
-11.0358
  0
LINE
  8
0
 10
-8.85092
 20
-11.0358
 11
-8.78647
 21
-11.1183
  0
LINE
  8
0
 10
-8.78647
 20
-11.1183
 11
-8.72792
 21
-11.2051
  0
LINE
  8
0
 10
-8.72792
 20
-11.2051
 11
-8.67557
 21
-11.2958
  0
LINE
  8
0
 10
-8.67557
 20
-11.2958
 11
-8.62967
 21
-11.3899
  0
LINE
  8
0
 10
-8.62967
 20
-11.3899
 11
-8.59045
 21
-11.487
  0
LINE
  8
0
 10
-8.59045
 20
-11.487
 11
-8.55811
 21
-11.5865
  0
LINE
  8
0
 10
-8.55811
 20
-11.5865
 11
-8.53278
 21
-11.6881
  0
LINE
  8
0
 10
-8.53278
 20
-11.6881
 11
-8.51459
 21
-11.7912
  0
LINE
  8
0
 10
-8.51459
 20
-11.7912
 11
-8.50365
 21
-11.8954
  0
LINE
  8
0
 10
-8.50365
 20
-11.8954
 11
-8.5
 21
-12
  0
LINE
  8
0
 10
-8.5
 20
-12
 11
-8.50365
 21
-12.1046
  0
LINE
  8
0
 10
-8.50365
 20
-12.1046
 11
-8.51459
 21
-12.2088
  0
LINE
  8
0
 10
-8.51459
 20
-12.2088
 11
-8.53278
 21
-12.3119
  0
LINE
  8
0
 10
-8.53278
 20
-12.3119
 11
-8.55811
 21
-12.4135
  0
LINE
  8
0
 10
-8.55811
 20
-12.4135
 11
-8.59045
 21
-12.513
  0
LINE
  8
0
 10
-8.59045
 20
-12.513
 11
-8.62967
 21
-12.6101
  0
LINE
  8
0
 10
-8.62967
 20
-12.6101
 11
-8.67557
 21
-12.7042
  0
LINE
  8
0
 10
-8.67557
 20
-12.7042
 11
-8.72792
 21
-12.7949
  0
LINE
  8
0
 10
-8.72792
 20
-12.7949
 11
-8.78647
 21
-12.8817
  0
LINE
  8
0
 10
-8.78647
 20
-12.8817
 11
-8.85092
 21
-12.9642
  0
LINE
  8
0
 10
-8.85092
 20
-12.9642
 11
-8.92099
 21
-13.042
  0
LINE
  8
0
 10
-8.92099
 20
-13.042
 11
-8.99629
 21
-13.1147
  0
LINE
  8
0
 10
-8.99629
 20
-13.1147
 11
-9.07651
 21
-13.182
  0
LINE
  8
0
 10
-9.07651
 20
-13.182
 11
-9.16121
 21
-13.2435
  0
LINE
  8
0
 10
-9.16121
 20
-13.2435
 11
-9.25
 21
-13.299
  0
LINE
  8
0
 10
-9.25
 20
-13.299
 11
-9.34244
 21
-13.3482
  0
LINE
  8
0
 10
-9.34244
 20
-13.3482
 11
-9.43808
 21
-13.3908
  0
LINE
  8
0
 10
-9.43808
 20
-13.3908
 11
-9.53647
 21
-13.4266
  0
LINE
  8
0
 10
-9.53647
 20
-13.4266
 11
-9.63712
 21
-13.4554
  0
LINE
  8
0
 10
-9.63712
 20
-13.4554
 11
-9.73952
 21
-13.4772
  0
LINE
  8
0
 10
-9.73952
 20
-13.4772
 11
-9.8432
 21
-13.4918
  0
LINE
  8
0
 10
-9.8432
 20
-13.4918
 11
-9.94765
 21
-13.4991
  0
LINE
  8
0
 10
-9.94765
 20
-13.4991
 11
-10.0523
 21
-13.4991
  0
ENDSEC
  0
SECTION
  2
OBJECTS
  0
DICTIONARY
  0
ENDSEC
  0
EOF
