  0
SECTION
  2
BLOCKS
  0
ENDSEC
  0
SECTION
  2
ENTITIES
  0
LINE
  8
0
 10
62.4558
 20
-21.4956
 11
62.5201
 21
-21.4869
  0
LINE
  8
0
 10
62.5201
 20
-21.4869
 11
62.5837
 21
-21.4739
  0
LINE
  8
0
 10
62.5837
 20
-21.4739
 11
62.6461
 21
-21.4566
  0
LINE
  8
0
 10
62.6461
 20
-21.4566
 11
62.7071
 21
-21.4352
  0
LINE
  8
0
 10
62.7071
 20
-21.4352
 11
62.7162
 21
-21.4318
  0
LINE
  8
0
 10
62.7162
 20
-21.4318
 11
62.7763
 21
-21.4061
  0
LINE
  8
0
 10
62.7763
 20
-21.4061
 11
62.8344
 21
-21.3763
  0
LINE
  8
0
 10
62.8344
 20
-21.3763
 11
62.8901
 21
-21.3427
  0
LINE
  8
0
 10
62.8901
 20
-21.3427
 11
62.9433
 21
-21.3055
  0
LINE
  8
0
 10
62.9433
 20
-21.3055
 11
62.9937
 21
-21.2648
  0
LINE
  8
0
 10
62.9937
 20
-21.2648
 11
63.041
 21
-21.2207
  0
LINE
  8
0
 10
63.041
 20
-21.2207
 11
63.0508
 21
-21.2116
  0
LINE
  8
0
 10
63.0508
 20
-21.2116
 11
63.0951
 21
-21.1641
  0
LINE
  8
0
 10
63.0951
 20
-21.1641
 11
63.1359
 21
-21.1138
  0
LINE
  8
0
 10
63.1359
 20
-21.1138
 11
63.1729
 21
-21.0609
  0
LINE
  8
0
 10
63.1729
 20
-21.0609
 11
63.2061
 21
-21.0056
  0
LINE
  8
0
 10
63.2061
 20
-21.0056
 11
63.2129
 21
-20.9928
  0
LINE
  8
0
 10
63.2129
 20
-20.9928
 11
63.242
 21
-20.9353
  0
LINE
  8
0
 10
63.242
 20
-20.9353
 11
63.2669
 21
-20.8759
  0
LINE
  8
0
 10
63.2669
 20
-20.8759
 11
64.3475
 21
-17.7598
  0
LINE
  8
0
 10
64.3475
 20
-17.7598
 11
64.368
 21
-17.6989
  0
LINE
  8
0
 10
64.368
 20
-17.6989
 11
65.5086
 21
-13.4123
  0
LINE
  8
0
 10
65.5086
 20
-13.4123
 11
65.5247
 21
-13.3502
  0
LINE
  8
0
 10
65.5247
 20
-13.3502
 11
66.3434
 21
-8.99942
  0
LINE
  8
0
 10
66.3434
 20
-8.99942
 11
66.3549
 21
-8.93642
  0
LINE
  8
0
 10
66.3549
 20
-8.93642
 11
66.8478
 21
-4.54276
  0
LINE
  8
0
 10
66.8478
 20
-4.54276
 11
66.8547
 21
-4.47911
  0
LINE
  8
0
 10
66.8547
 20
-4.47911
 11
67.0193
 21
-0.0639343
  0
LINE
  8
0
 10
67.0193
 20
-0.0639343
 11
67.0216
 21
0
  0
LINE
  8
0
 10
67.0216
 20
0
 11
67.0193
 21
0.0639343
  0
LINE
  8
0
 10
67.0193
 20
0.0639343
 11
66.8547
 21
4.47911
  0
LINE
  8
0
 10
66.8547
 20
4.47911
 11
66.8478
 21
4.54276
  0
LINE
  8
0
 10
66.8478
 20
4.54276
 11
66.3549
 21
8.93642
  0
LINE
  8
0
 10
66.3549
 20
8.93642
 11
66.3434
 21
8.99942
  0
LINE
  8
0
 10
66.3434
 20
8.99942
 11
65.5247
 21
13.3502
  0
LINE
  8
0
 10
65.5247
 20
13.3502
 11
65.5086
 21
13.4123
  0
LINE
  8
0
 10
65.5086
 20
13.4123
 11
64.368
 21
17.6989
  0
LINE
  8
0
 10
64.368
 20
17.6989
 11
64.3475
 21
17.7598
  0
LINE
  8
0
 10
64.3475
 20
17.7598
 11
63.2669
 21
20.8759
  0
LINE
  8
0
 10
63.2669
 20
20.8759
 11
63.242
 21
20.9353
  0
LINE
  8
0
 10
63.242
 20
20.9353
 11
63.2129
 21
20.9928
  0
LINE
  8
0
 10
63.2129
 20
20.9928
 11
63.2061
 21
21.0056
  0
LINE
  8
0
 10
63.2061
 20
21.0056
 11
63.1729
 21
21.0609
  0
LINE
  8
0
 10
63.1729
 20
21.0609
 11
63.1359
 21
21.1138
  0
LINE
  8
0
 10
63.1359
 20
21.1138
 11
63.0951
 21
21.1641
  0
LINE
  8
0
 10
63.0951
 20
21.1641
 11
63.0508
 21
21.2116
  0
LINE
  8
0
 10
63.0508
 20
21.2116
 11
63.041
 21
21.2207
  0
LINE
  8
0
 10
63.041
 20
21.2207
 11
62.9937
 21
21.2648
  0
LINE
  8
0
 10
62.9937
 20
21.2648
 11
62.9433
 21
21.3055
  0
LINE
  8
0
 10
62.9433
 20
21.3055
 11
62.8901
 21
21.3427
  0
LINE
  8
0
 10
62.8901
 20
21.3427
 11
62.8344
 21
21.3763
  0
LINE
  8
0
 10
62.8344
 20
21.3763
 11
62.7763
 21
21.4061
  0
LINE
  8
0
 10
62.7763
 20
21.4061
 11
62.7162
 21
21.4318
  0
LINE
  8
0
 10
62.7162
 20
21.4318
 11
62.7071
 21
21.4352
  0
LINE
  8
0
 10
62.7071
 20
21.4352
 11
62.6461
 21
21.4566
  0
LINE
  8
0
 10
62.6461
 20
21.4566
 11
62.5837
 21
21.4739
  0
LINE
  8
0
 10
62.5837
 20
21.4739
 11
62.5201
 21
21.4869
  0
LINE
  8
0
 10
62.5201
 20
21.4869
 11
62.4558
 21
21.4956
  0
LINE
  8
0
 10
62.4558
 20
21.4956
 11
62.391
 21
21.5
  0
LINE
  8
0
 10
62.391
 20
21.5
 11
-65.3478
 21
21.5
  0
LINE
  8
0
 10
-65.3478
 20
21.5
 11
-65.4126
 21
21.4956
  0
LINE
  8
0
 10
-65.4126
 20
21.4956
 11
-65.477
 21
21.4869
  0
LINE
  8
0
 10
-65.477
 20
21.4869
 11
-65.5405
 21
21.4739
  0
LINE
  8
0
 10
-65.5405
 20
21.4739
 11
-65.6029
 21
21.4566
  0
LINE
  8
0
 10
-65.6029
 20
21.4566
 11
-65.664
 21
21.4352
  0
LINE
  8
0
 10
-65.664
 20
21.4352
 11
-65.673
 21
21.4318
  0
LINE
  8
0
 10
-65.673
 20
21.4318
 11
-65.7331
 21
21.4061
  0
LINE
  8
0
 10
-65.7331
 20
21.4061
 11
-65.7912
 21
21.3763
  0
LINE
  8
0
 10
-65.7912
 20
21.3763
 11
-65.847
 21
21.3427
  0
LINE
  8
0
 10
-65.847
 20
21.3427
 11
-65.9001
 21
21.3055
  0
LINE
  8
0
 10
-65.9001
 20
21.3055
 11
-65.9505
 21
21.2648
  0
LINE
  8
0
 10
-65.9505
 20
21.2648
 11
-65.9978
 21
21.2207
  0
LINE
  8
0
 10
-65.9978
 20
21.2207
 11
-66.0076
 21
21.2116
  0
LINE
  8
0
 10
-66.0076
 20
21.2116
 11
-66.0519
 21
21.1641
  0
LINE
  8
0
 10
-66.0519
 20
21.1641
 11
-66.0927
 21
21.1138
  0
LINE
  8
0
 10
-66.0927
 20
21.1138
 11
-66.1298
 21
21.0609
  0
LINE
  8
0
 10
-66.1298
 20
21.0609
 11
-66.1629
 21
21.0056
  0
LINE
  8
0
 10
-66.1629
 20
21.0056
 11
-66.1698
 21
20.9928
  0
LINE
  8
0
 10
-66.1698
 20
20.9928
 11
-66.1989
 21
20.9353
  0
LINE
  8
0
 10
-66.1989
 20
20.9353
 11
-66.2238
 21
20.8759
  0
LINE
  8
0
 10
-66.2238
 20
20.8759
 11
-67.3043
 21
17.7598
  0
LINE
  8
0
 10
-67.3043
 20
17.7598
 11
-67.3248
 21
17.6989
  0
LINE
  8
0
 10
-67.3248
 20
17.6989
 11
-68.4655
 21
13.4123
  0
LINE
  8
0
 10
-68.4655
 20
13.4123
 11
-68.4815
 21
13.3502
  0
LINE
  8
0
 10
-68.4815
 20
13.3502
 11
-69.3002
 21
8.99942
  0
LINE
  8
0
 10
-69.3002
 20
8.99942
 11
-69.3118
 21
8.93642
  0
LINE
  8
0
 10
-69.3118
 20
8.93642
 11
-69.8046
 21
4.54276
  0
LINE
  8
0
 10
-69.8046
 20
4.54276
 11
-69.8116
 21
4.47911
  0
LINE
  8
0
 10
-69.8116
 20
4.47911
 11
-69.9761
 21
0.0639343
  0
LINE
  8
0
 10
-69.9761
 20
0.0639343
 11
-69.9784
 21
0
  0
LINE
  8
0
 10
-69.9784
 20
0
 11
-69.9761
 21
-0.0639343
  0
LINE
  8
0
 10
-69.9761
 20
-0.0639343
 11
-69.8116
 21
-4.47911
  0
LINE
  8
0
 10
-69.8116
 20
-4.47911
 11
-69.8046
 21
-4.54276
  0
LINE
  8
0
 10
-69.8046
 20
-4.54276
 11
-69.3118
 21
-8.93642
  0
LINE
  8
0
 10
-69.3118
 20
-8.93642
 11
-69.3002
 21
-8.99942
  0
LINE
  8
0
 10
-69.3002
 20
-8.99942
 11
-68.4815
 21
-13.3502
  0
LINE
  8
0
 10
-68.4815
 20
-13.3502
 11
-68.4655
 21
-13.4123
  0
LINE
  8
0
 10
-68.4655
 20
-13.4123
 11
-67.3248
 21
-17.6989
  0
LINE
  8
0
 10
-67.3248
 20
-17.6989
 11
-67.3043
 21
-17.7598
  0
LINE
  8
0
 10
-67.3043
 20
-17.7598
 11
-66.2238
 21
-20.8759
  0
LINE
  8
0
 10
-66.2238
 20
-20.8759
 11
-66.1989
 21
-20.9353
  0
LINE
  8
0
 10
-66.1989
 20
-20.9353
 11
-66.1698
 21
-20.9928
  0
LINE
  8
0
 10
-66.1698
 20
-20.9928
 11
-66.1629
 21
-21.0056
  0
LINE
  8
0
 10
-66.1629
 20
-21.0056
 11
-66.1298
 21
-21.0609
  0
LINE
  8
0
 10
-66.1298
 20
-21.0609
 11
-66.0927
 21
-21.1138
  0
LINE
  8
0
 10
-66.0927
 20
-21.1138
 11
-66.0519
 21
-21.1641
  0
LINE
  8
0
 10
-66.0519
 20
-21.1641
 11
-66.0076
 21
-21.2116
  0
LINE
  8
0
 10
-66.0076
 20
-21.2116
 11
-65.9978
 21
-21.2207
  0
LINE
  8
0
 10
-65.9978
 20
-21.2207
 11
-65.9505
 21
-21.2648
  0
LINE
  8
0
 10
-65.9505
 20
-21.2648
 11
-65.9001
 21
-21.3055
  0
LINE
  8
0
 10
-65.9001
 20
-21.3055
 11
-65.847
 21
-21.3427
  0
LINE
  8
0
 10
-65.847
 20
-21.3427
 11
-65.7912
 21
-21.3763
  0
LINE
  8
0
 10
-65.7912
 20
-21.3763
 11
-65.7331
 21
-21.4061
  0
LINE
  8
0
 10
-65.7331
 20
-21.4061
 11
-65.673
 21
-21.4318
  0
LINE
  8
0
 10
-65.673
 20
-21.4318
 11
-65.664
 21
-21.4352
  0
LINE
  8
0
 10
-65.664
 20
-21.4352
 11
-65.6029
 21
-21.4566
  0
LINE
  8
0
 10
-65.6029
 20
-21.4566
 11
-65.5405
 21
-21.4739
  0
LINE
  8
0
 10
-65.5405
 20
-21.4739
 11
-65.477
 21
-21.4869
  0
LINE
  8
0
 10
-65.477
 20
-21.4869
 11
-65.4126
 21
-21.4956
  0
LINE
  8
0
 10
-65.4126
 20
-21.4956
 11
-65.3478
 21
-21.5
  0
LINE
  8
0
 10
-65.3478
 20
-21.5
 11
62.391
 21
-21.5
  0
LINE
  8
0
 10
62.391
 20
-21.5
 11
62.4558
 21
-21.4956
  0
ENDSEC
  0
SECTION
  2
OBJECTS
  0
DICTIONARY
  0
ENDSEC
  0
EOF
