  0
SECTION
  2
BLOCKS
  0
ENDSEC
  0
SECTION
  2
ENTITIES
  0
LINE
  8
0
 10
64.2752
 20
-21.8202
 11
64.6546
 21
-20.7109
  0
LINE
  8
0
 10
64.6546
 20
-20.7109
 11
65.0141
 21
-19.5953
  0
LINE
  8
0
 10
65.0141
 20
-19.5953
 11
65.3536
 21
-18.4737
  0
LINE
  8
0
 10
65.3536
 20
-18.4737
 11
65.6731
 21
-17.3465
  0
LINE
  8
0
 10
65.6731
 20
-17.3465
 11
65.9724
 21
-16.2141
  0
LINE
  8
0
 10
65.9724
 20
-16.2141
 11
66.2515
 21
-15.0766
  0
LINE
  8
0
 10
66.2515
 20
-15.0766
 11
66.5103
 21
-13.9346
  0
LINE
  8
0
 10
66.5103
 20
-13.9346
 11
66.7487
 21
-12.7884
  0
LINE
  8
0
 10
66.7487
 20
-12.7884
 11
66.9665
 21
-11.6382
  0
LINE
  8
0
 10
66.9665
 20
-11.6382
 11
67.1638
 21
-10.4845
  0
LINE
  8
0
 10
67.1638
 20
-10.4845
 11
67.3405
 21
-9.32764
  0
LINE
  8
0
 10
67.3405
 20
-9.32764
 11
67.4966
 21
-8.16789
  0
LINE
  8
0
 10
67.4966
 20
-8.16789
 11
67.6319
 21
-7.00568
  0
LINE
  8
0
 10
67.6319
 20
-7.00568
 11
67.7465
 21
-5.84132
  0
LINE
  8
0
 10
67.7465
 20
-5.84132
 11
67.8403
 21
-4.6752
  0
LINE
  8
0
 10
67.8403
 20
-4.6752
 11
67.9133
 21
-3.50764
  0
LINE
  8
0
 10
67.9133
 20
-3.50764
 11
67.9655
 21
-2.33902
  0
LINE
  8
0
 10
67.9655
 20
-2.33902
 11
67.9967
 21
-1.16968
  0
LINE
  8
0
 10
67.9967
 20
-1.16968
 11
68.0072
 21
0
  0
LINE
  8
0
 10
68.0072
 20
0
 11
67.9967
 21
1.16968
  0
LINE
  8
0
 10
67.9967
 20
1.16968
 11
67.9655
 21
2.33902
  0
LINE
  8
0
 10
67.9655
 20
2.33902
 11
67.9133
 21
3.50764
  0
LINE
  8
0
 10
67.9133
 20
3.50764
 11
67.8403
 21
4.6752
  0
LINE
  8
0
 10
67.8403
 20
4.6752
 11
67.7465
 21
5.84132
  0
LINE
  8
0
 10
67.7465
 20
5.84132
 11
67.6319
 21
7.00568
  0
LINE
  8
0
 10
67.6319
 20
7.00568
 11
67.4966
 21
8.16789
  0
LINE
  8
0
 10
67.4966
 20
8.16789
 11
67.3405
 21
9.32764
  0
LINE
  8
0
 10
67.3405
 20
9.32764
 11
67.1638
 21
10.4845
  0
LINE
  8
0
 10
67.1638
 20
10.4845
 11
66.9665
 21
11.6382
  0
LINE
  8
0
 10
66.9665
 20
11.6382
 11
66.7487
 21
12.7884
  0
LINE
  8
0
 10
66.7487
 20
12.7884
 11
66.5103
 21
13.9346
  0
LINE
  8
0
 10
66.5103
 20
13.9346
 11
66.2515
 21
15.0766
  0
LINE
  8
0
 10
66.2515
 20
15.0766
 11
65.9724
 21
16.2141
  0
LINE
  8
0
 10
65.9724
 20
16.2141
 11
65.6731
 21
17.3465
  0
LINE
  8
0
 10
65.6731
 20
17.3465
 11
65.3536
 21
18.4737
  0
LINE
  8
0
 10
65.3536
 20
18.4737
 11
65.0141
 21
19.5953
  0
LINE
  8
0
 10
65.0141
 20
19.5953
 11
64.6546
 21
20.7109
  0
LINE
  8
0
 10
64.6546
 20
20.7109
 11
64.2752
 21
21.8202
  0
LINE
  8
0
 10
64.2752
 20
21.8202
 11
64.2704
 21
21.8333
  0
LINE
  8
0
 10
64.2704
 20
21.8333
 11
-65.2561
 21
21.8333
  0
LINE
  8
0
 10
-65.2561
 20
21.8333
 11
-65.2608
 21
21.8202
  0
LINE
  8
0
 10
-65.2608
 20
21.8202
 11
-65.6402
 21
20.7109
  0
LINE
  8
0
 10
-65.6402
 20
20.7109
 11
-65.9997
 21
19.5953
  0
LINE
  8
0
 10
-65.9997
 20
19.5953
 11
-66.3392
 21
18.4737
  0
LINE
  8
0
 10
-66.3392
 20
18.4737
 11
-66.6587
 21
17.3465
  0
LINE
  8
0
 10
-66.6587
 20
17.3465
 11
-66.9581
 21
16.2141
  0
LINE
  8
0
 10
-66.9581
 20
16.2141
 11
-67.2372
 21
15.0766
  0
LINE
  8
0
 10
-67.2372
 20
15.0766
 11
-67.4959
 21
13.9346
  0
LINE
  8
0
 10
-67.4959
 20
13.9346
 11
-67.7343
 21
12.7884
  0
LINE
  8
0
 10
-67.7343
 20
12.7884
 11
-67.9521
 21
11.6382
  0
LINE
  8
0
 10
-67.9521
 20
11.6382
 11
-68.1495
 21
10.4845
  0
LINE
  8
0
 10
-68.1495
 20
10.4845
 11
-68.3262
 21
9.32764
  0
LINE
  8
0
 10
-68.3262
 20
9.32764
 11
-68.4822
 21
8.16789
  0
LINE
  8
0
 10
-68.4822
 20
8.16789
 11
-68.6176
 21
7.00568
  0
LINE
  8
0
 10
-68.6176
 20
7.00568
 11
-68.7321
 21
5.84132
  0
LINE
  8
0
 10
-68.7321
 20
5.84132
 11
-68.8259
 21
4.6752
  0
LINE
  8
0
 10
-68.8259
 20
4.6752
 11
-68.8989
 21
3.50764
  0
LINE
  8
0
 10
-68.8989
 20
3.50764
 11
-68.9511
 21
2.33902
  0
LINE
  8
0
 10
-68.9511
 20
2.33902
 11
-68.9824
 21
1.16968
  0
LINE
  8
0
 10
-68.9824
 20
1.16968
 11
-68.9928
 21
0
  0
LINE
  8
0
 10
-68.9928
 20
0
 11
-68.9824
 21
-1.16968
  0
LINE
  8
0
 10
-68.9824
 20
-1.16968
 11
-68.9511
 21
-2.33902
  0
LINE
  8
0
 10
-68.9511
 20
-2.33902
 11
-68.8989
 21
-3.50764
  0
LINE
  8
0
 10
-68.8989
 20
-3.50764
 11
-68.8259
 21
-4.6752
  0
LINE
  8
0
 10
-68.8259
 20
-4.6752
 11
-68.7321
 21
-5.84132
  0
LINE
  8
0
 10
-68.7321
 20
-5.84132
 11
-68.6176
 21
-7.00568
  0
LINE
  8
0
 10
-68.6176
 20
-7.00568
 11
-68.4822
 21
-8.16789
  0
LINE
  8
0
 10
-68.4822
 20
-8.16789
 11
-68.3262
 21
-9.32764
  0
LINE
  8
0
 10
-68.3262
 20
-9.32764
 11
-68.1495
 21
-10.4845
  0
LINE
  8
0
 10
-68.1495
 20
-10.4845
 11
-67.9521
 21
-11.6382
  0
LINE
  8
0
 10
-67.9521
 20
-11.6382
 11
-67.7343
 21
-12.7884
  0
LINE
  8
0
 10
-67.7343
 20
-12.7884
 11
-67.4959
 21
-13.9346
  0
LINE
  8
0
 10
-67.4959
 20
-13.9346
 11
-67.2372
 21
-15.0766
  0
LINE
  8
0
 10
-67.2372
 20
-15.0766
 11
-66.9581
 21
-16.2141
  0
LINE
  8
0
 10
-66.9581
 20
-16.2141
 11
-66.6587
 21
-17.3465
  0
LINE
  8
0
 10
-66.6587
 20
-17.3465
 11
-66.3392
 21
-18.4737
  0
LINE
  8
0
 10
-66.3392
 20
-18.4737
 11
-65.9997
 21
-19.5953
  0
LINE
  8
0
 10
-65.9997
 20
-19.5953
 11
-65.6402
 21
-20.7109
  0
LINE
  8
0
 10
-65.6402
 20
-20.7109
 11
-65.2608
 21
-21.8202
  0
LINE
  8
0
 10
-65.2608
 20
-21.8202
 11
-65.2561
 21
-21.8333
  0
LINE
  8
0
 10
-65.2561
 20
-21.8333
 11
64.2704
 21
-21.8333
  0
LINE
  8
0
 10
64.2704
 20
-21.8333
 11
64.2752
 21
-21.8202
  0
LINE
  8
0
 10
-9.02617
 20
-13.4998
 11
-9.05234
 21
-13.4991
  0
LINE
  8
0
 10
-9.05234
 20
-13.4991
 11
-9.07849
 21
-13.4979
  0
LINE
  8
0
 10
-9.07849
 20
-13.4979
 11
-9.10463
 21
-13.4963
  0
LINE
  8
0
 10
-9.10463
 20
-13.4963
 11
-9.13072
 21
-13.4943
  0
LINE
  8
0
 10
-9.13072
 20
-13.4943
 11
-9.15678
 21
-13.4918
  0
LINE
  8
0
 10
-9.15678
 20
-13.4918
 11
-9.1828
 21
-13.4888
  0
LINE
  8
0
 10
-9.1828
 20
-13.4888
 11
-9.20876
 21
-13.4854
  0
LINE
  8
0
 10
-9.20876
 20
-13.4854
 11
-9.23465
 21
-13.4815
  0
LINE
  8
0
 10
-9.23465
 20
-13.4815
 11
-9.26047
 21
-13.4772
  0
LINE
  8
0
 10
-9.26047
 20
-13.4772
 11
-9.28621
 21
-13.4724
  0
LINE
  8
0
 10
-9.28621
 20
-13.4724
 11
-9.31186
 21
-13.4672
  0
LINE
  8
0
 10
-9.31186
 20
-13.4672
 11
-9.33742
 21
-13.4615
  0
LINE
  8
0
 10
-9.33742
 20
-13.4615
 11
-9.36287
 21
-13.4554
  0
LINE
  8
0
 10
-9.36287
 20
-13.4554
 11
-9.38821
 21
-13.4489
  0
LINE
  8
0
 10
-9.38821
 20
-13.4489
 11
-9.41345
 21
-13.4419
  0
LINE
  8
0
 10
-9.41345
 20
-13.4419
 11
-9.43855
 21
-13.4344
  0
LINE
  8
0
 10
-9.43855
 20
-13.4344
 11
-9.46352
 21
-13.4266
  0
LINE
  8
0
 10
-9.46352
 20
-13.4266
 11
-9.48834
 21
-13.4183
  0
LINE
  8
0
 10
-9.48834
 20
-13.4183
 11
-9.51302
 21
-13.4095
  0
LINE
  8
0
 10
-9.51302
 20
-13.4095
 11
-9.53755
 21
-13.4004
  0
LINE
  8
0
 10
-9.53755
 20
-13.4004
 11
-9.5619
 21
-13.3908
  0
LINE
  8
0
 10
-9.5619
 20
-13.3908
 11
-9.58609
 21
-13.3808
  0
LINE
  8
0
 10
-9.58609
 20
-13.3808
 11
-9.61009
 21
-13.3703
  0
LINE
  8
0
 10
-9.61009
 20
-13.3703
 11
-9.63393
 21
-13.3595
  0
LINE
  8
0
 10
-9.63393
 20
-13.3595
 11
-9.65755
 21
-13.3482
  0
LINE
  8
0
 10
-9.65755
 20
-13.3482
 11
-9.68098
 21
-13.3365
  0
LINE
  8
0
 10
-9.68098
 20
-13.3365
 11
-9.70419
 21
-13.3244
  0
LINE
  8
0
 10
-9.70419
 20
-13.3244
 11
-9.7272
 21
-13.3119
  0
LINE
  8
0
 10
-9.7272
 20
-13.3119
 11
-9.75
 21
-13.299
  0
LINE
  8
0
 10
-9.75
 20
-13.299
 11
-9.77255
 21
-13.2857
  0
LINE
  8
0
 10
-9.77255
 20
-13.2857
 11
-9.79488
 21
-13.2721
  0
LINE
  8
0
 10
-9.79488
 20
-13.2721
 11
-9.81696
 21
-13.258
  0
LINE
  8
0
 10
-9.81696
 20
-13.258
 11
-9.83878
 21
-13.2435
  0
LINE
  8
0
 10
-9.83878
 20
-13.2435
 11
-9.86035
 21
-13.2287
  0
LINE
  8
0
 10
-9.86035
 20
-13.2287
 11
-9.88167
 21
-13.2135
  0
LINE
  8
0
 10
-9.88167
 20
-13.2135
 11
-9.90271
 21
-13.198
  0
LINE
  8
0
 10
-9.90271
 20
-13.198
 11
-9.92348
 21
-13.182
  0
LINE
  8
0
 10
-9.92348
 20
-13.182
 11
-9.94397
 21
-13.1657
  0
LINE
  8
0
 10
-9.94397
 20
-13.1657
 11
-9.96417
 21
-13.1491
  0
LINE
  8
0
 10
-9.96417
 20
-13.1491
 11
-9.98409
 21
-13.132
  0
LINE
  8
0
 10
-9.98409
 20
-13.132
 11
-10.0037
 21
-13.1147
  0
LINE
  8
0
 10
-10.0037
 20
-13.1147
 11
-10.023
 21
-13.097
  0
LINE
  8
0
 10
-10.023
 20
-13.097
 11
-10.042
 21
-13.079
  0
LINE
  8
0
 10
-10.042
 20
-13.079
 11
-10.0607
 21
-13.0607
  0
LINE
  8
0
 10
-10.0607
 20
-13.0607
 11
-10.079
 21
-13.042
  0
LINE
  8
0
 10
-10.079
 20
-13.042
 11
-10.097
 21
-13.023
  0
LINE
  8
0
 10
-10.097
 20
-13.023
 11
-10.1147
 21
-13.0037
  0
LINE
  8
0
 10
-10.1147
 20
-13.0037
 11
-10.132
 21
-12.9841
  0
LINE
  8
0
 10
-10.132
 20
-12.9841
 11
-10.1491
 21
-12.9642
  0
LINE
  8
0
 10
-10.1491
 20
-12.9642
 11
-10.1657
 21
-12.944
  0
LINE
  8
0
 10
-10.1657
 20
-12.944
 11
-10.182
 21
-12.9235
  0
LINE
  8
0
 10
-10.182
 20
-12.9235
 11
-10.198
 21
-12.9027
  0
LINE
  8
0
 10
-10.198
 20
-12.9027
 11
-10.2135
 21
-12.8817
  0
LINE
  8
0
 10
-10.2135
 20
-12.8817
 11
-10.2287
 21
-12.8604
  0
LINE
  8
0
 10
-10.2287
 20
-12.8604
 11
-10.2435
 21
-12.8388
  0
LINE
  8
0
 10
-10.2435
 20
-12.8388
 11
-10.258
 21
-12.817
  0
LINE
  8
0
 10
-10.258
 20
-12.817
 11
-10.2721
 21
-12.7949
  0
LINE
  8
0
 10
-10.2721
 20
-12.7949
 11
-10.2857
 21
-12.7726
  0
LINE
  8
0
 10
-10.2857
 20
-12.7726
 11
-10.299
 21
-12.75
  0
LINE
  8
0
 10
-10.299
 20
-12.75
 11
-10.3119
 21
-12.7272
  0
LINE
  8
0
 10
-10.3119
 20
-12.7272
 11
-10.3244
 21
-12.7042
  0
LINE
  8
0
 10
-10.3244
 20
-12.7042
 11
-10.3365
 21
-12.681
  0
LINE
  8
0
 10
-10.3365
 20
-12.681
 11
-10.3482
 21
-12.6575
  0
LINE
  8
0
 10
-10.3482
 20
-12.6575
 11
-10.3595
 21
-12.6339
  0
LINE
  8
0
 10
-10.3595
 20
-12.6339
 11
-10.3703
 21
-12.6101
  0
LINE
  8
0
 10
-10.3703
 20
-12.6101
 11
-10.3808
 21
-12.5861
  0
LINE
  8
0
 10
-10.3808
 20
-12.5861
 11
-10.3908
 21
-12.5619
  0
LINE
  8
0
 10
-10.3908
 20
-12.5619
 11
-10.4004
 21
-12.5376
  0
LINE
  8
0
 10
-10.4004
 20
-12.5376
 11
-10.4095
 21
-12.513
  0
LINE
  8
0
 10
-10.4095
 20
-12.513
 11
-10.4183
 21
-12.4883
  0
LINE
  8
0
 10
-10.4183
 20
-12.4883
 11
-10.4266
 21
-12.4635
  0
LINE
  8
0
 10
-10.4266
 20
-12.4635
 11
-10.4344
 21
-12.4386
  0
LINE
  8
0
 10
-10.4344
 20
-12.4386
 11
-10.4419
 21
-12.4135
  0
LINE
  8
0
 10
-10.4419
 20
-12.4135
 11
-10.4489
 21
-12.3882
  0
LINE
  8
0
 10
-10.4489
 20
-12.3882
 11
-10.4554
 21
-12.3629
  0
LINE
  8
0
 10
-10.4554
 20
-12.3629
 11
-10.4615
 21
-12.3374
  0
LINE
  8
0
 10
-10.4615
 20
-12.3374
 11
-10.4672
 21
-12.3119
  0
LINE
  8
0
 10
-10.4672
 20
-12.3119
 11
-10.4724
 21
-12.2862
  0
LINE
  8
0
 10
-10.4724
 20
-12.2862
 11
-10.4772
 21
-12.2605
  0
LINE
  8
0
 10
-10.4772
 20
-12.2605
 11
-10.4815
 21
-12.2346
  0
LINE
  8
0
 10
-10.4815
 20
-12.2346
 11
-10.4854
 21
-12.2088
  0
LINE
  8
0
 10
-10.4854
 20
-12.2088
 11
-10.4888
 21
-12.1828
  0
LINE
  8
0
 10
-10.4888
 20
-12.1828
 11
-10.4918
 21
-12.1568
  0
LINE
  8
0
 10
-10.4918
 20
-12.1568
 11
-10.4943
 21
-12.1307
  0
LINE
  8
0
 10
-10.4943
 20
-12.1307
 11
-10.4963
 21
-12.1046
  0
LINE
  8
0
 10
-10.4963
 20
-12.1046
 11
-10.4979
 21
-12.0785
  0
LINE
  8
0
 10
-10.4979
 20
-12.0785
 11
-10.4991
 21
-12.0523
  0
LINE
  8
0
 10
-10.4991
 20
-12.0523
 11
-10.4998
 21
-12.0262
  0
LINE
  8
0
 10
-10.4998
 20
-12.0262
 11
-10.5
 21
-12
  0
LINE
  8
0
 10
-10.5
 20
-12
 11
-10.4998
 21
-11.9738
  0
LINE
  8
0
 10
-10.4998
 20
-11.9738
 11
-10.4991
 21
-11.9476
  0
LINE
  8
0
 10
-10.4991
 20
-11.9476
 11
-10.4979
 21
-11.9215
  0
LINE
  8
0
 10
-10.4979
 20
-11.9215
 11
-10.4963
 21
-11.8954
  0
LINE
  8
0
 10
-10.4963
 20
-11.8954
 11
-10.4943
 21
-11.8693
  0
LINE
  8
0
 10
-10.4943
 20
-11.8693
 11
-10.4918
 21
-11.8432
  0
LINE
  8
0
 10
-10.4918
 20
-11.8432
 11
-10.4888
 21
-11.8172
  0
LINE
  8
0
 10
-10.4888
 20
-11.8172
 11
-10.4854
 21
-11.7912
  0
LINE
  8
0
 10
-10.4854
 20
-11.7912
 11
-10.4815
 21
-11.7653
  0
LINE
  8
0
 10
-10.4815
 20
-11.7653
 11
-10.4772
 21
-11.7395
  0
LINE
  8
0
 10
-10.4772
 20
-11.7395
 11
-10.4724
 21
-11.7138
  0
LINE
  8
0
 10
-10.4724
 20
-11.7138
 11
-10.4672
 21
-11.6881
  0
LINE
  8
0
 10
-10.4672
 20
-11.6881
 11
-10.4615
 21
-11.6626
  0
LINE
  8
0
 10
-10.4615
 20
-11.6626
 11
-10.4554
 21
-11.6371
  0
LINE
  8
0
 10
-10.4554
 20
-11.6371
 11
-10.4489
 21
-11.6118
  0
LINE
  8
0
 10
-10.4489
 20
-11.6118
 11
-10.4419
 21
-11.5865
  0
LINE
  8
0
 10
-10.4419
 20
-11.5865
 11
-10.4344
 21
-11.5614
  0
LINE
  8
0
 10
-10.4344
 20
-11.5614
 11
-10.4266
 21
-11.5365
  0
LINE
  8
0
 10
-10.4266
 20
-11.5365
 11
-10.4183
 21
-11.5116
  0
LINE
  8
0
 10
-10.4183
 20
-11.5116
 11
-10.4095
 21
-11.487
  0
LINE
  8
0
 10
-10.4095
 20
-11.487
 11
-10.4004
 21
-11.4624
  0
LINE
  8
0
 10
-10.4004
 20
-11.4624
 11
-10.3908
 21
-11.4381
  0
LINE
  8
0
 10
-10.3908
 20
-11.4381
 11
-10.3808
 21
-11.4139
  0
LINE
  8
0
 10
-10.3808
 20
-11.4139
 11
-10.3703
 21
-11.3899
  0
LINE
  8
0
 10
-10.3703
 20
-11.3899
 11
-10.3595
 21
-11.3661
  0
LINE
  8
0
 10
-10.3595
 20
-11.3661
 11
-10.3482
 21
-11.3424
  0
LINE
  8
0
 10
-10.3482
 20
-11.3424
 11
-10.3365
 21
-11.319
  0
LINE
  8
0
 10
-10.3365
 20
-11.319
 11
-10.3244
 21
-11.2958
  0
LINE
  8
0
 10
-10.3244
 20
-11.2958
 11
-10.3119
 21
-11.2728
  0
LINE
  8
0
 10
-10.3119
 20
-11.2728
 11
-10.299
 21
-11.25
  0
LINE
  8
0
 10
-10.299
 20
-11.25
 11
-10.2857
 21
-11.2274
  0
LINE
  8
0
 10
-10.2857
 20
-11.2274
 11
-10.2721
 21
-11.2051
  0
LINE
  8
0
 10
-10.2721
 20
-11.2051
 11
-10.258
 21
-11.183
  0
LINE
  8
0
 10
-10.258
 20
-11.183
 11
-10.2435
 21
-11.1612
  0
LINE
  8
0
 10
-10.2435
 20
-11.1612
 11
-10.2287
 21
-11.1396
  0
LINE
  8
0
 10
-10.2287
 20
-11.1396
 11
-10.2135
 21
-11.1183
  0
LINE
  8
0
 10
-10.2135
 20
-11.1183
 11
-10.198
 21
-11.0973
  0
LINE
  8
0
 10
-10.198
 20
-11.0973
 11
-10.182
 21
-11.0765
  0
LINE
  8
0
 10
-10.182
 20
-11.0765
 11
-10.1657
 21
-11.056
  0
LINE
  8
0
 10
-10.1657
 20
-11.056
 11
-10.1491
 21
-11.0358
  0
LINE
  8
0
 10
-10.1491
 20
-11.0358
 11
-10.132
 21
-11.0159
  0
LINE
  8
0
 10
-10.132
 20
-11.0159
 11
-10.1147
 21
-10.9963
  0
LINE
  8
0
 10
-10.1147
 20
-10.9963
 11
-10.097
 21
-10.977
  0
LINE
  8
0
 10
-10.097
 20
-10.977
 11
-10.079
 21
-10.958
  0
LINE
  8
0
 10
-10.079
 20
-10.958
 11
-10.0607
 21
-10.9393
  0
LINE
  8
0
 10
-10.0607
 20
-10.9393
 11
-10.042
 21
-10.921
  0
LINE
  8
0
 10
-10.042
 20
-10.921
 11
-10.023
 21
-10.903
  0
LINE
  8
0
 10
-10.023
 20
-10.903
 11
-10.0037
 21
-10.8853
  0
LINE
  8
0
 10
-10.0037
 20
-10.8853
 11
-9.98409
 21
-10.8679
  0
LINE
  8
0
 10
-9.98409
 20
-10.8679
 11
-9.96417
 21
-10.8509
  0
LINE
  8
0
 10
-9.96417
 20
-10.8509
 11
-9.94397
 21
-10.8343
  0
LINE
  8
0
 10
-9.94397
 20
-10.8343
 11
-9.92348
 21
-10.818
  0
LINE
  8
0
 10
-9.92348
 20
-10.818
 11
-9.90271
 21
-10.802
  0
LINE
  8
0
 10
-9.90271
 20
-10.802
 11
-9.88167
 21
-10.7865
  0
LINE
  8
0
 10
-9.88167
 20
-10.7865
 11
-9.86035
 21
-10.7713
  0
LINE
  8
0
 10
-9.86035
 20
-10.7713
 11
-9.83878
 21
-10.7564
  0
LINE
  8
0
 10
-9.83878
 20
-10.7564
 11
-9.81696
 21
-10.742
  0
LINE
  8
0
 10
-9.81696
 20
-10.742
 11
-9.79488
 21
-10.7279
  0
LINE
  8
0
 10
-9.79488
 20
-10.7279
 11
-9.77255
 21
-10.7142
  0
LINE
  8
0
 10
-9.77255
 20
-10.7142
 11
-9.75
 21
-10.701
  0
LINE
  8
0
 10
-9.75
 20
-10.701
 11
-9.7272
 21
-10.6881
  0
LINE
  8
0
 10
-9.7272
 20
-10.6881
 11
-9.70419
 21
-10.6756
  0
LINE
  8
0
 10
-9.70419
 20
-10.6756
 11
-9.68098
 21
-10.6635
  0
LINE
  8
0
 10
-9.68098
 20
-10.6635
 11
-9.65755
 21
-10.6518
  0
LINE
  8
0
 10
-9.65755
 20
-10.6518
 11
-9.63393
 21
-10.6405
  0
LINE
  8
0
 10
-9.63393
 20
-10.6405
 11
-9.61009
 21
-10.6297
  0
LINE
  8
0
 10
-9.61009
 20
-10.6297
 11
-9.58609
 21
-10.6192
  0
LINE
  8
0
 10
-9.58609
 20
-10.6192
 11
-9.5619
 21
-10.6092
  0
LINE
  8
0
 10
-9.5619
 20
-10.6092
 11
-9.53755
 21
-10.5996
  0
LINE
  8
0
 10
-9.53755
 20
-10.5996
 11
-9.51302
 21
-10.5905
  0
LINE
  8
0
 10
-9.51302
 20
-10.5905
 11
-9.48834
 21
-10.5817
  0
LINE
  8
0
 10
-9.48834
 20
-10.5817
 11
-9.46352
 21
-10.5734
  0
LINE
  8
0
 10
-9.46352
 20
-10.5734
 11
-9.43855
 21
-10.5655
  0
LINE
  8
0
 10
-9.43855
 20
-10.5655
 11
-9.41345
 21
-10.5581
  0
LINE
  8
0
 10
-9.41345
 20
-10.5581
 11
-9.38821
 21
-10.5511
  0
LINE
  8
0
 10
-9.38821
 20
-10.5511
 11
-9.36287
 21
-10.5446
  0
LINE
  8
0
 10
-9.36287
 20
-10.5446
 11
-9.33742
 21
-10.5384
  0
LINE
  8
0
 10
-9.33742
 20
-10.5384
 11
-9.31186
 21
-10.5328
  0
LINE
  8
0
 10
-9.31186
 20
-10.5328
 11
-9.28621
 21
-10.5276
  0
LINE
  8
0
 10
-9.28621
 20
-10.5276
 11
-9.26047
 21
-10.5228
  0
LINE
  8
0
 10
-9.26047
 20
-10.5228
 11
-9.23465
 21
-10.5185
  0
LINE
  8
0
 10
-9.23465
 20
-10.5185
 11
-9.20876
 21
-10.5146
  0
LINE
  8
0
 10
-9.20876
 20
-10.5146
 11
-9.1828
 21
-10.5112
  0
LINE
  8
0
 10
-9.1828
 20
-10.5112
 11
-9.15678
 21
-10.5082
  0
LINE
  8
0
 10
-9.15678
 20
-10.5082
 11
-9.13072
 21
-10.5057
  0
LINE
  8
0
 10
-9.13072
 20
-10.5057
 11
-9.10463
 21
-10.5036
  0
LINE
  8
0
 10
-9.10463
 20
-10.5036
 11
-9.07849
 21
-10.502
  0
LINE
  8
0
 10
-9.07849
 20
-10.502
 11
-9.05234
 21
-10.5009
  0
LINE
  8
0
 10
-9.05234
 20
-10.5009
 11
-9.02617
 21
-10.5002
  0
LINE
  8
0
 10
-9.02617
 20
-10.5002
 11
-9
 21
-10.5
  0
LINE
  8
0
 10
-9
 20
-10.5
 11
-8.97382
 21
-10.5002
  0
LINE
  8
0
 10
-8.97382
 20
-10.5002
 11
-8.94765
 21
-10.5009
  0
LINE
  8
0
 10
-8.94765
 20
-10.5009
 11
-8.92149
 21
-10.502
  0
LINE
  8
0
 10
-8.92149
 20
-10.502
 11
-8.89536
 21
-10.5036
  0
LINE
  8
0
 10
-8.89536
 20
-10.5036
 11
-8.86926
 21
-10.5057
  0
LINE
  8
0
 10
-8.86926
 20
-10.5057
 11
-8.8432
 21
-10.5082
  0
LINE
  8
0
 10
-8.8432
 20
-10.5082
 11
-8.81718
 21
-10.5112
  0
LINE
  8
0
 10
-8.81718
 20
-10.5112
 11
-8.79123
 21
-10.5146
  0
LINE
  8
0
 10
-8.79123
 20
-10.5146
 11
-8.76534
 21
-10.5185
  0
LINE
  8
0
 10
-8.76534
 20
-10.5185
 11
-8.73952
 21
-10.5228
  0
LINE
  8
0
 10
-8.73952
 20
-10.5228
 11
-8.71378
 21
-10.5276
  0
LINE
  8
0
 10
-8.71378
 20
-10.5276
 11
-8.68813
 21
-10.5328
  0
LINE
  8
0
 10
-8.68813
 20
-10.5328
 11
-8.66257
 21
-10.5384
  0
LINE
  8
0
 10
-8.66257
 20
-10.5384
 11
-8.63712
 21
-10.5446
  0
LINE
  8
0
 10
-8.63712
 20
-10.5446
 11
-8.61177
 21
-10.5511
  0
LINE
  8
0
 10
-8.61177
 20
-10.5511
 11
-8.58653
 21
-10.5581
  0
LINE
  8
0
 10
-8.58653
 20
-10.5581
 11
-8.56143
 21
-10.5655
  0
LINE
  8
0
 10
-8.56143
 20
-10.5655
 11
-8.53647
 21
-10.5734
  0
LINE
  8
0
 10
-8.53647
 20
-10.5734
 11
-8.51164
 21
-10.5817
  0
LINE
  8
0
 10
-8.51164
 20
-10.5817
 11
-8.48697
 21
-10.5905
  0
LINE
  8
0
 10
-8.48697
 20
-10.5905
 11
-8.46243
 21
-10.5996
  0
LINE
  8
0
 10
-8.46243
 20
-10.5996
 11
-8.43808
 21
-10.6092
  0
LINE
  8
0
 10
-8.43808
 20
-10.6092
 11
-8.41389
 21
-10.6192
  0
LINE
  8
0
 10
-8.41389
 20
-10.6192
 11
-8.38989
 21
-10.6297
  0
LINE
  8
0
 10
-8.38989
 20
-10.6297
 11
-8.36606
 21
-10.6405
  0
LINE
  8
0
 10
-8.36606
 20
-10.6405
 11
-8.34244
 21
-10.6518
  0
LINE
  8
0
 10
-8.34244
 20
-10.6518
 11
-8.319
 21
-10.6635
  0
LINE
  8
0
 10
-8.319
 20
-10.6635
 11
-8.29579
 21
-10.6756
  0
LINE
  8
0
 10
-8.29579
 20
-10.6756
 11
-8.27278
 21
-10.6881
  0
LINE
  8
0
 10
-8.27278
 20
-10.6881
 11
-8.25
 21
-10.701
  0
LINE
  8
0
 10
-8.25
 20
-10.701
 11
-8.22743
 21
-10.7142
  0
LINE
  8
0
 10
-8.22743
 20
-10.7142
 11
-8.20511
 21
-10.7279
  0
LINE
  8
0
 10
-8.20511
 20
-10.7279
 11
-8.18303
 21
-10.742
  0
LINE
  8
0
 10
-8.18303
 20
-10.742
 11
-8.16121
 21
-10.7564
  0
LINE
  8
0
 10
-8.16121
 20
-10.7564
 11
-8.13963
 21
-10.7713
  0
LINE
  8
0
 10
-8.13963
 20
-10.7713
 11
-8.11832
 21
-10.7865
  0
LINE
  8
0
 10
-8.11832
 20
-10.7865
 11
-8.09727
 21
-10.802
  0
LINE
  8
0
 10
-8.09727
 20
-10.802
 11
-8.07651
 21
-10.818
  0
LINE
  8
0
 10
-8.07651
 20
-10.818
 11
-8.05602
 21
-10.8343
  0
LINE
  8
0
 10
-8.05602
 20
-10.8343
 11
-8.03581
 21
-10.8509
  0
LINE
  8
0
 10
-8.03581
 20
-10.8509
 11
-8.0159
 21
-10.8679
  0
LINE
  8
0
 10
-8.0159
 20
-10.8679
 11
-7.99629
 21
-10.8853
  0
LINE
  8
0
 10
-7.99629
 20
-10.8853
 11
-7.97699
 21
-10.903
  0
LINE
  8
0
 10
-7.97699
 20
-10.903
 11
-7.95801
 21
-10.921
  0
LINE
  8
0
 10
-7.95801
 20
-10.921
 11
-7.93933
 21
-10.9393
  0
LINE
  8
0
 10
-7.93933
 20
-10.9393
 11
-7.92099
 21
-10.958
  0
LINE
  8
0
 10
-7.92099
 20
-10.958
 11
-7.90297
 21
-10.977
  0
LINE
  8
0
 10
-7.90297
 20
-10.977
 11
-7.88527
 21
-10.9963
  0
LINE
  8
0
 10
-7.88527
 20
-10.9963
 11
-7.86794
 21
-11.0159
  0
LINE
  8
0
 10
-7.86794
 20
-11.0159
 11
-7.85092
 21
-11.0358
  0
LINE
  8
0
 10
-7.85092
 20
-11.0358
 11
-7.83427
 21
-11.056
  0
LINE
  8
0
 10
-7.83427
 20
-11.056
 11
-7.81798
 21
-11.0765
  0
LINE
  8
0
 10
-7.81798
 20
-11.0765
 11
-7.80203
 21
-11.0973
  0
LINE
  8
0
 10
-7.80203
 20
-11.0973
 11
-7.78647
 21
-11.1183
  0
LINE
  8
0
 10
-7.78647
 20
-11.1183
 11
-7.77127
 21
-11.1396
  0
LINE
  8
0
 10
-7.77127
 20
-11.1396
 11
-7.75644
 21
-11.1612
  0
LINE
  8
0
 10
-7.75644
 20
-11.1612
 11
-7.74199
 21
-11.183
  0
LINE
  8
0
 10
-7.74199
 20
-11.183
 11
-7.72792
 21
-11.2051
  0
LINE
  8
0
 10
-7.72792
 20
-11.2051
 11
-7.71425
 21
-11.2274
  0
LINE
  8
0
 10
-7.71425
 20
-11.2274
 11
-7.70096
 21
-11.25
  0
LINE
  8
0
 10
-7.70096
 20
-11.25
 11
-7.68806
 21
-11.2728
  0
LINE
  8
0
 10
-7.68806
 20
-11.2728
 11
-7.67557
 21
-11.2958
  0
LINE
  8
0
 10
-7.67557
 20
-11.2958
 11
-7.66348
 21
-11.319
  0
LINE
  8
0
 10
-7.66348
 20
-11.319
 11
-7.65179
 21
-11.3424
  0
LINE
  8
0
 10
-7.65179
 20
-11.3424
 11
-7.64053
 21
-11.3661
  0
LINE
  8
0
 10
-7.64053
 20
-11.3661
 11
-7.62967
 21
-11.3899
  0
LINE
  8
0
 10
-7.62967
 20
-11.3899
 11
-7.61923
 21
-11.4139
  0
LINE
  8
0
 10
-7.61923
 20
-11.4139
 11
-7.60922
 21
-11.4381
  0
LINE
  8
0
 10
-7.60922
 20
-11.4381
 11
-7.59962
 21
-11.4624
  0
LINE
  8
0
 10
-7.59962
 20
-11.4624
 11
-7.59045
 21
-11.487
  0
LINE
  8
0
 10
-7.59045
 20
-11.487
 11
-7.58171
 21
-11.5116
  0
LINE
  8
0
 10
-7.58171
 20
-11.5116
 11
-7.57341
 21
-11.5365
  0
LINE
  8
0
 10
-7.57341
 20
-11.5365
 11
-7.56554
 21
-11.5614
  0
LINE
  8
0
 10
-7.56554
 20
-11.5614
 11
-7.55811
 21
-11.5865
  0
LINE
  8
0
 10
-7.55811
 20
-11.5865
 11
-7.5511
 21
-11.6118
  0
LINE
  8
0
 10
-7.5511
 20
-11.6118
 11
-7.54456
 21
-11.6371
  0
LINE
  8
0
 10
-7.54456
 20
-11.6371
 11
-7.53844
 21
-11.6626
  0
LINE
  8
0
 10
-7.53844
 20
-11.6626
 11
-7.53278
 21
-11.6881
  0
LINE
  8
0
 10
-7.53278
 20
-11.6881
 11
-7.52756
 21
-11.7138
  0
LINE
  8
0
 10
-7.52756
 20
-11.7138
 11
-7.52278
 21
-11.7395
  0
LINE
  8
0
 10
-7.52278
 20
-11.7395
 11
-7.51846
 21
-11.7653
  0
LINE
  8
0
 10
-7.51846
 20
-11.7653
 11
-7.51459
 21
-11.7912
  0
LINE
  8
0
 10
-7.51459
 20
-11.7912
 11
-7.51117
 21
-11.8172
  0
LINE
  8
0
 10
-7.51117
 20
-11.8172
 11
-7.50821
 21
-11.8432
  0
LINE
  8
0
 10
-7.50821
 20
-11.8432
 11
-7.50571
 21
-11.8693
  0
LINE
  8
0
 10
-7.50571
 20
-11.8693
 11
-7.50365
 21
-11.8954
  0
LINE
  8
0
 10
-7.50365
 20
-11.8954
 11
-7.50204
 21
-11.9215
  0
LINE
  8
0
 10
-7.50204
 20
-11.9215
 11
-7.5009
 21
-11.9476
  0
LINE
  8
0
 10
-7.5009
 20
-11.9476
 11
-7.50021
 21
-11.9738
  0
LINE
  8
0
 10
-7.50021
 20
-11.9738
 11
-7.5
 21
-12
  0
LINE
  8
0
 10
-7.5
 20
-12
 11
-7.50021
 21
-12.0262
  0
LINE
  8
0
 10
-7.50021
 20
-12.0262
 11
-7.5009
 21
-12.0523
  0
LINE
  8
0
 10
-7.5009
 20
-12.0523
 11
-7.50204
 21
-12.0785
  0
LINE
  8
0
 10
-7.50204
 20
-12.0785
 11
-7.50365
 21
-12.1046
  0
LINE
  8
0
 10
-7.50365
 20
-12.1046
 11
-7.50571
 21
-12.1307
  0
LINE
  8
0
 10
-7.50571
 20
-12.1307
 11
-7.50821
 21
-12.1568
  0
LINE
  8
0
 10
-7.50821
 20
-12.1568
 11
-7.51117
 21
-12.1828
  0
LINE
  8
0
 10
-7.51117
 20
-12.1828
 11
-7.51459
 21
-12.2088
  0
LINE
  8
0
 10
-7.51459
 20
-12.2088
 11
-7.51846
 21
-12.2346
  0
LINE
  8
0
 10
-7.51846
 20
-12.2346
 11
-7.52278
 21
-12.2605
  0
LINE
  8
0
 10
-7.52278
 20
-12.2605
 11
-7.52756
 21
-12.2862
  0
LINE
  8
0
 10
-7.52756
 20
-12.2862
 11
-7.53278
 21
-12.3119
  0
LINE
  8
0
 10
-7.53278
 20
-12.3119
 11
-7.53844
 21
-12.3374
  0
LINE
  8
0
 10
-7.53844
 20
-12.3374
 11
-7.54456
 21
-12.3629
  0
LINE
  8
0
 10
-7.54456
 20
-12.3629
 11
-7.5511
 21
-12.3882
  0
LINE
  8
0
 10
-7.5511
 20
-12.3882
 11
-7.55811
 21
-12.4135
  0
LINE
  8
0
 10
-7.55811
 20
-12.4135
 11
-7.56554
 21
-12.4386
  0
LINE
  8
0
 10
-7.56554
 20
-12.4386
 11
-7.57341
 21
-12.4635
  0
LINE
  8
0
 10
-7.57341
 20
-12.4635
 11
-7.58171
 21
-12.4883
  0
LINE
  8
0
 10
-7.58171
 20
-12.4883
 11
-7.59045
 21
-12.513
  0
LINE
  8
0
 10
-7.59045
 20
-12.513
 11
-7.59962
 21
-12.5376
  0
LINE
  8
0
 10
-7.59962
 20
-12.5376
 11
-7.60922
 21
-12.5619
  0
LINE
  8
0
 10
-7.60922
 20
-12.5619
 11
-7.61923
 21
-12.5861
  0
LINE
  8
0
 10
-7.61923
 20
-12.5861
 11
-7.62967
 21
-12.6101
  0
LINE
  8
0
 10
-7.62967
 20
-12.6101
 11
-7.64053
 21
-12.6339
  0
LINE
  8
0
 10
-7.64053
 20
-12.6339
 11
-7.65179
 21
-12.6575
  0
LINE
  8
0
 10
-7.65179
 20
-12.6575
 11
-7.66348
 21
-12.681
  0
LINE
  8
0
 10
-7.66348
 20
-12.681
 11
-7.67557
 21
-12.7042
  0
LINE
  8
0
 10
-7.67557
 20
-12.7042
 11
-7.68806
 21
-12.7272
  0
LINE
  8
0
 10
-7.68806
 20
-12.7272
 11
-7.70096
 21
-12.75
  0
LINE
  8
0
 10
-7.70096
 20
-12.75
 11
-7.71425
 21
-12.7726
  0
LINE
  8
0
 10
-7.71425
 20
-12.7726
 11
-7.72792
 21
-12.7949
  0
LINE
  8
0
 10
-7.72792
 20
-12.7949
 11
-7.74199
 21
-12.817
  0
LINE
  8
0
 10
-7.74199
 20
-12.817
 11
-7.75644
 21
-12.8388
  0
LINE
  8
0
 10
-7.75644
 20
-12.8388
 11
-7.77127
 21
-12.8604
  0
LINE
  8
0
 10
-7.77127
 20
-12.8604
 11
-7.78647
 21
-12.8817
  0
LINE
  8
0
 10
-7.78647
 20
-12.8817
 11
-7.80203
 21
-12.9027
  0
LINE
  8
0
 10
-7.80203
 20
-12.9027
 11
-7.81798
 21
-12.9235
  0
LINE
  8
0
 10
-7.81798
 20
-12.9235
 11
-7.83427
 21
-12.944
  0
LINE
  8
0
 10
-7.83427
 20
-12.944
 11
-7.85092
 21
-12.9642
  0
LINE
  8
0
 10
-7.85092
 20
-12.9642
 11
-7.86794
 21
-12.9841
  0
LINE
  8
0
 10
-7.86794
 20
-12.9841
 11
-7.88527
 21
-13.0037
  0
LINE
  8
0
 10
-7.88527
 20
-13.0037
 11
-7.90297
 21
-13.023
  0
LINE
  8
0
 10
-7.90297
 20
-13.023
 11
-7.92099
 21
-13.042
  0
LINE
  8
0
 10
-7.92099
 20
-13.042
 11
-7.93933
 21
-13.0607
  0
LINE
  8
0
 10
-7.93933
 20
-13.0607
 11
-7.95801
 21
-13.079
  0
LINE
  8
0
 10
-7.95801
 20
-13.079
 11
-7.97699
 21
-13.097
  0
LINE
  8
0
 10
-7.97699
 20
-13.097
 11
-7.99629
 21
-13.1147
  0
LINE
  8
0
 10
-7.99629
 20
-13.1147
 11
-8.0159
 21
-13.132
  0
LINE
  8
0
 10
-8.0159
 20
-13.132
 11
-8.03581
 21
-13.1491
  0
LINE
  8
0
 10
-8.03581
 20
-13.1491
 11
-8.05602
 21
-13.1657
  0
LINE
  8
0
 10
-8.05602
 20
-13.1657
 11
-8.07651
 21
-13.182
  0
LINE
  8
0
 10
-8.07651
 20
-13.182
 11
-8.09727
 21
-13.198
  0
LINE
  8
0
 10
-8.09727
 20
-13.198
 11
-8.11832
 21
-13.2135
  0
LINE
  8
0
 10
-8.11832
 20
-13.2135
 11
-8.13963
 21
-13.2287
  0
LINE
  8
0
 10
-8.13963
 20
-13.2287
 11
-8.16121
 21
-13.2435
  0
LINE
  8
0
 10
-8.16121
 20
-13.2435
 11
-8.18303
 21
-13.258
  0
LINE
  8
0
 10
-8.18303
 20
-13.258
 11
-8.20511
 21
-13.2721
  0
LINE
  8
0
 10
-8.20511
 20
-13.2721
 11
-8.22743
 21
-13.2857
  0
LINE
  8
0
 10
-8.22743
 20
-13.2857
 11
-8.25
 21
-13.299
  0
LINE
  8
0
 10
-8.25
 20
-13.299
 11
-8.27278
 21
-13.3119
  0
LINE
  8
0
 10
-8.27278
 20
-13.3119
 11
-8.29579
 21
-13.3244
  0
LINE
  8
0
 10
-8.29579
 20
-13.3244
 11
-8.319
 21
-13.3365
  0
LINE
  8
0
 10
-8.319
 20
-13.3365
 11
-8.34244
 21
-13.3482
  0
LINE
  8
0
 10
-8.34244
 20
-13.3482
 11
-8.36606
 21
-13.3595
  0
LINE
  8
0
 10
-8.36606
 20
-13.3595
 11
-8.38989
 21
-13.3703
  0
LINE
  8
0
 10
-8.38989
 20
-13.3703
 11
-8.41389
 21
-13.3808
  0
LINE
  8
0
 10
-8.41389
 20
-13.3808
 11
-8.43808
 21
-13.3908
  0
LINE
  8
0
 10
-8.43808
 20
-13.3908
 11
-8.46243
 21
-13.4004
  0
LINE
  8
0
 10
-8.46243
 20
-13.4004
 11
-8.48697
 21
-13.4095
  0
LINE
  8
0
 10
-8.48697
 20
-13.4095
 11
-8.51164
 21
-13.4183
  0
LINE
  8
0
 10
-8.51164
 20
-13.4183
 11
-8.53647
 21
-13.4266
  0
LINE
  8
0
 10
-8.53647
 20
-13.4266
 11
-8.56143
 21
-13.4344
  0
LINE
  8
0
 10
-8.56143
 20
-13.4344
 11
-8.58653
 21
-13.4419
  0
LINE
  8
0
 10
-8.58653
 20
-13.4419
 11
-8.61177
 21
-13.4489
  0
LINE
  8
0
 10
-8.61177
 20
-13.4489
 11
-8.63712
 21
-13.4554
  0
LINE
  8
0
 10
-8.63712
 20
-13.4554
 11
-8.66257
 21
-13.4615
  0
LINE
  8
0
 10
-8.66257
 20
-13.4615
 11
-8.68813
 21
-13.4672
  0
LINE
  8
0
 10
-8.68813
 20
-13.4672
 11
-8.71378
 21
-13.4724
  0
LINE
  8
0
 10
-8.71378
 20
-13.4724
 11
-8.73952
 21
-13.4772
  0
LINE
  8
0
 10
-8.73952
 20
-13.4772
 11
-8.76534
 21
-13.4815
  0
LINE
  8
0
 10
-8.76534
 20
-13.4815
 11
-8.79123
 21
-13.4854
  0
LINE
  8
0
 10
-8.79123
 20
-13.4854
 11
-8.81718
 21
-13.4888
  0
LINE
  8
0
 10
-8.81718
 20
-13.4888
 11
-8.8432
 21
-13.4918
  0
LINE
  8
0
 10
-8.8432
 20
-13.4918
 11
-8.86926
 21
-13.4943
  0
LINE
  8
0
 10
-8.86926
 20
-13.4943
 11
-8.89536
 21
-13.4963
  0
LINE
  8
0
 10
-8.89536
 20
-13.4963
 11
-8.92149
 21
-13.4979
  0
LINE
  8
0
 10
-8.92149
 20
-13.4979
 11
-8.94765
 21
-13.4991
  0
LINE
  8
0
 10
-8.94765
 20
-13.4991
 11
-8.97382
 21
-13.4998
  0
LINE
  8
0
 10
-8.97382
 20
-13.4998
 11
-9
 21
-13.5
  0
LINE
  8
0
 10
-9
 20
-13.5
 11
-9.02617
 21
-13.4998
  0
ENDSEC
  0
SECTION
  2
OBJECTS
  0
DICTIONARY
  0
ENDSEC
  0
EOF
