  0
SECTION
  2
BLOCKS
  0
ENDSEC
  0
SECTION
  2
ENTITIES
  0
LINE
  8
0
 10
60.5784
 20
-19.9957
 11
60.6435
 21
-19.9871
  0
LINE
  8
0
 10
60.6435
 20
-19.9871
 11
60.7078
 21
-19.9742
  0
LINE
  8
0
 10
60.7078
 20
-19.9742
 11
60.771
 21
-19.9572
  0
LINE
  8
0
 10
60.771
 20
-19.9572
 11
60.7791
 21
-19.955
  0
LINE
  8
0
 10
60.7791
 20
-19.955
 11
60.8416
 21
-19.9336
  0
LINE
  8
0
 10
60.8416
 20
-19.9336
 11
60.9025
 21
-19.9082
  0
LINE
  8
0
 10
60.9025
 20
-19.9082
 11
60.9612
 21
-19.8788
  0
LINE
  8
0
 10
60.9612
 20
-19.8788
 11
61.0177
 21
-19.8457
  0
LINE
  8
0
 10
61.0177
 20
-19.8457
 11
61.0715
 21
-19.8089
  0
LINE
  8
0
 10
61.0715
 20
-19.8089
 11
61.1225
 21
-19.7687
  0
LINE
  8
0
 10
61.1225
 20
-19.7687
 11
61.1317
 21
-19.7609
  0
LINE
  8
0
 10
61.1317
 20
-19.7609
 11
61.18
 21
-19.7171
  0
LINE
  8
0
 10
61.18
 20
-19.7171
 11
61.2248
 21
-19.6703
  0
LINE
  8
0
 10
61.2248
 20
-19.6703
 11
61.2661
 21
-19.6207
  0
LINE
  8
0
 10
61.2661
 20
-19.6207
 11
61.3036
 21
-19.5684
  0
LINE
  8
0
 10
61.3036
 20
-19.5684
 11
61.3371
 21
-19.5139
  0
LINE
  8
0
 10
61.3371
 20
-19.5139
 11
61.3438
 21
-19.5021
  0
LINE
  8
0
 10
61.3438
 20
-19.5021
 11
61.3732
 21
-19.4453
  0
LINE
  8
0
 10
61.3732
 20
-19.4453
 11
61.3984
 21
-19.3868
  0
LINE
  8
0
 10
61.3984
 20
-19.3868
 11
62.4612
 21
-16.4042
  0
LINE
  8
0
 10
62.4612
 20
-16.4042
 11
62.482
 21
-16.3441
  0
LINE
  8
0
 10
62.482
 20
-16.3441
 11
63.5633
 21
-12.3895
  0
LINE
  8
0
 10
63.5633
 20
-12.3895
 11
63.5796
 21
-12.3283
  0
LINE
  8
0
 10
63.5796
 20
-12.3283
 11
64.3558
 21
-8.31456
  0
LINE
  8
0
 10
64.3558
 20
-8.31456
 11
64.3674
 21
-8.25237
  0
LINE
  8
0
 10
64.3674
 20
-8.25237
 11
64.8346
 21
-4.19905
  0
LINE
  8
0
 10
64.8346
 20
-4.19905
 11
64.8417
 21
-4.13626
  0
LINE
  8
0
 10
64.8417
 20
-4.13626
 11
64.9977
 21
-0.0630951
  0
LINE
  8
0
 10
64.9977
 20
-0.0630951
 11
65
 21
0
  0
LINE
  8
0
 10
65
 20
0
 11
64.9977
 21
0.0630951
  0
LINE
  8
0
 10
64.9977
 20
0.0630951
 11
64.8417
 21
4.13626
  0
LINE
  8
0
 10
64.8417
 20
4.13626
 11
64.8346
 21
4.19905
  0
LINE
  8
0
 10
64.8346
 20
4.19905
 11
64.3674
 21
8.25237
  0
LINE
  8
0
 10
64.3674
 20
8.25237
 11
64.3558
 21
8.31456
  0
LINE
  8
0
 10
64.3558
 20
8.31456
 11
63.5796
 21
12.3283
  0
LINE
  8
0
 10
63.5796
 20
12.3283
 11
63.5633
 21
12.3895
  0
LINE
  8
0
 10
63.5633
 20
12.3895
 11
62.482
 21
16.3441
  0
LINE
  8
0
 10
62.482
 20
16.3441
 11
62.4612
 21
16.4042
  0
LINE
  8
0
 10
62.4612
 20
16.4042
 11
61.3984
 21
19.3868
  0
LINE
  8
0
 10
61.3984
 20
19.3868
 11
61.3732
 21
19.4453
  0
LINE
  8
0
 10
61.3732
 20
19.4453
 11
61.3438
 21
19.5021
  0
LINE
  8
0
 10
61.3438
 20
19.5021
 11
61.3371
 21
19.5139
  0
LINE
  8
0
 10
61.3371
 20
19.5139
 11
61.3036
 21
19.5684
  0
LINE
  8
0
 10
61.3036
 20
19.5684
 11
61.2661
 21
19.6207
  0
LINE
  8
0
 10
61.2661
 20
19.6207
 11
61.2248
 21
19.6703
  0
LINE
  8
0
 10
61.2248
 20
19.6703
 11
61.18
 21
19.7171
  0
LINE
  8
0
 10
61.18
 20
19.7171
 11
61.1317
 21
19.7609
  0
LINE
  8
0
 10
61.1317
 20
19.7609
 11
61.1225
 21
19.7687
  0
LINE
  8
0
 10
61.1225
 20
19.7687
 11
61.0715
 21
19.8089
  0
LINE
  8
0
 10
61.0715
 20
19.8089
 11
61.0177
 21
19.8457
  0
LINE
  8
0
 10
61.0177
 20
19.8457
 11
60.9612
 21
19.8788
  0
LINE
  8
0
 10
60.9612
 20
19.8788
 11
60.9025
 21
19.9082
  0
LINE
  8
0
 10
60.9025
 20
19.9082
 11
60.8416
 21
19.9336
  0
LINE
  8
0
 10
60.8416
 20
19.9336
 11
60.7791
 21
19.955
  0
LINE
  8
0
 10
60.7791
 20
19.955
 11
60.771
 21
19.9572
  0
LINE
  8
0
 10
60.771
 20
19.9572
 11
60.7078
 21
19.9742
  0
LINE
  8
0
 10
60.7078
 20
19.9742
 11
60.6435
 21
19.9871
  0
LINE
  8
0
 10
60.6435
 20
19.9871
 11
60.5784
 21
19.9957
  0
LINE
  8
0
 10
60.5784
 20
19.9957
 11
60.5128
 21
20
  0
LINE
  8
0
 10
60.5128
 20
20
 11
-60.5128
 21
20
  0
LINE
  8
0
 10
-60.5128
 20
20
 11
-60.5784
 21
19.9957
  0
LINE
  8
0
 10
-60.5784
 20
19.9957
 11
-60.6435
 21
19.9871
  0
LINE
  8
0
 10
-60.6435
 20
19.9871
 11
-60.7078
 21
19.9742
  0
LINE
  8
0
 10
-60.7078
 20
19.9742
 11
-60.771
 21
19.9572
  0
LINE
  8
0
 10
-60.771
 20
19.9572
 11
-60.7791
 21
19.955
  0
LINE
  8
0
 10
-60.7791
 20
19.955
 11
-60.8416
 21
19.9336
  0
LINE
  8
0
 10
-60.8416
 20
19.9336
 11
-60.9025
 21
19.9082
  0
LINE
  8
0
 10
-60.9025
 20
19.9082
 11
-60.9612
 21
19.8788
  0
LINE
  8
0
 10
-60.9612
 20
19.8788
 11
-61.0177
 21
19.8457
  0
LINE
  8
0
 10
-61.0177
 20
19.8457
 11
-61.0715
 21
19.8089
  0
LINE
  8
0
 10
-61.0715
 20
19.8089
 11
-61.1225
 21
19.7687
  0
LINE
  8
0
 10
-61.1225
 20
19.7687
 11
-61.1317
 21
19.7609
  0
LINE
  8
0
 10
-61.1317
 20
19.7609
 11
-61.18
 21
19.7171
  0
LINE
  8
0
 10
-61.18
 20
19.7171
 11
-61.2248
 21
19.6703
  0
LINE
  8
0
 10
-61.2248
 20
19.6703
 11
-61.2661
 21
19.6207
  0
LINE
  8
0
 10
-61.2661
 20
19.6207
 11
-61.3036
 21
19.5684
  0
LINE
  8
0
 10
-61.3036
 20
19.5684
 11
-61.3371
 21
19.5139
  0
LINE
  8
0
 10
-61.3371
 20
19.5139
 11
-61.3438
 21
19.5021
  0
LINE
  8
0
 10
-61.3438
 20
19.5021
 11
-61.3732
 21
19.4453
  0
LINE
  8
0
 10
-61.3732
 20
19.4453
 11
-61.3984
 21
19.3868
  0
LINE
  8
0
 10
-61.3984
 20
19.3868
 11
-62.4612
 21
16.4042
  0
LINE
  8
0
 10
-62.4612
 20
16.4042
 11
-62.482
 21
16.3441
  0
LINE
  8
0
 10
-62.482
 20
16.3441
 11
-63.5633
 21
12.3895
  0
LINE
  8
0
 10
-63.5633
 20
12.3895
 11
-63.5796
 21
12.3283
  0
LINE
  8
0
 10
-63.5796
 20
12.3283
 11
-64.3558
 21
8.31456
  0
LINE
  8
0
 10
-64.3558
 20
8.31456
 11
-64.3674
 21
8.25237
  0
LINE
  8
0
 10
-64.3674
 20
8.25237
 11
-64.8346
 21
4.19905
  0
LINE
  8
0
 10
-64.8346
 20
4.19905
 11
-64.8417
 21
4.13626
  0
LINE
  8
0
 10
-64.8417
 20
4.13626
 11
-64.9977
 21
0.0630951
  0
LINE
  8
0
 10
-64.9977
 20
0.0630951
 11
-65
 21
0
  0
LINE
  8
0
 10
-65
 20
0
 11
-64.9977
 21
-0.0630951
  0
LINE
  8
0
 10
-64.9977
 20
-0.0630951
 11
-64.8417
 21
-4.13626
  0
LINE
  8
0
 10
-64.8417
 20
-4.13626
 11
-64.8346
 21
-4.19905
  0
LINE
  8
0
 10
-64.8346
 20
-4.19905
 11
-64.3674
 21
-8.25237
  0
LINE
  8
0
 10
-64.3674
 20
-8.25237
 11
-64.3558
 21
-8.31456
  0
LINE
  8
0
 10
-64.3558
 20
-8.31456
 11
-63.5796
 21
-12.3283
  0
LINE
  8
0
 10
-63.5796
 20
-12.3283
 11
-63.5633
 21
-12.3895
  0
LINE
  8
0
 10
-63.5633
 20
-12.3895
 11
-62.482
 21
-16.3441
  0
LINE
  8
0
 10
-62.482
 20
-16.3441
 11
-62.4612
 21
-16.4042
  0
LINE
  8
0
 10
-62.4612
 20
-16.4042
 11
-61.3984
 21
-19.3868
  0
LINE
  8
0
 10
-61.3984
 20
-19.3868
 11
-61.3732
 21
-19.4453
  0
LINE
  8
0
 10
-61.3732
 20
-19.4453
 11
-61.3438
 21
-19.5021
  0
LINE
  8
0
 10
-61.3438
 20
-19.5021
 11
-61.3371
 21
-19.5139
  0
LINE
  8
0
 10
-61.3371
 20
-19.5139
 11
-61.3036
 21
-19.5684
  0
LINE
  8
0
 10
-61.3036
 20
-19.5684
 11
-61.2661
 21
-19.6207
  0
LINE
  8
0
 10
-61.2661
 20
-19.6207
 11
-61.2248
 21
-19.6703
  0
LINE
  8
0
 10
-61.2248
 20
-19.6703
 11
-61.18
 21
-19.7171
  0
LINE
  8
0
 10
-61.18
 20
-19.7171
 11
-61.1317
 21
-19.7609
  0
LINE
  8
0
 10
-61.1317
 20
-19.7609
 11
-61.1225
 21
-19.7687
  0
LINE
  8
0
 10
-61.1225
 20
-19.7687
 11
-61.0715
 21
-19.8089
  0
LINE
  8
0
 10
-61.0715
 20
-19.8089
 11
-61.0177
 21
-19.8457
  0
LINE
  8
0
 10
-61.0177
 20
-19.8457
 11
-60.9612
 21
-19.8788
  0
LINE
  8
0
 10
-60.9612
 20
-19.8788
 11
-60.9025
 21
-19.9082
  0
LINE
  8
0
 10
-60.9025
 20
-19.9082
 11
-60.8416
 21
-19.9336
  0
LINE
  8
0
 10
-60.8416
 20
-19.9336
 11
-60.7791
 21
-19.955
  0
LINE
  8
0
 10
-60.7791
 20
-19.955
 11
-60.771
 21
-19.9572
  0
LINE
  8
0
 10
-60.771
 20
-19.9572
 11
-60.7078
 21
-19.9742
  0
LINE
  8
0
 10
-60.7078
 20
-19.9742
 11
-60.6435
 21
-19.9871
  0
LINE
  8
0
 10
-60.6435
 20
-19.9871
 11
-60.5784
 21
-19.9957
  0
LINE
  8
0
 10
-60.5784
 20
-19.9957
 11
-60.5128
 21
-20
  0
LINE
  8
0
 10
-60.5128
 20
-20
 11
60.5128
 21
-20
  0
LINE
  8
0
 10
60.5128
 20
-20
 11
60.5784
 21
-19.9957
  0
ENDSEC
  0
SECTION
  2
OBJECTS
  0
DICTIONARY
  0
ENDSEC
  0
EOF
